<svg xmlns="http://www.w3.org/2000/svg" viewBox="0 0 1942.95 592.14"><defs><style>.cls-1{fill:#686b71;}.cls-2{fill:#e13a36;}</style></defs><g id="Capa_2" data-name="Capa 2"><g id="Capa_1-2" data-name="Capa 1"><path class="cls-1" d="M1860.07,171.81c0-21.42,18.44-38.71,41.42-38.71,22.78,0,41.46,17.29,41.46,38.71,0,21.07-18.68,38.48-41.46,38.48-23,0-41.42-17.41-41.42-38.48m6.83,0c0,17.48,15.37,32.05,34.4,32.05s34.49-14.57,34.49-32.05c0-17.73-15.35-32.06-34.49-32.06s-34.4,14.33-34.4,32.06m53.54,20.73H1911l-6.19-14.63c-.73-1.39-.73-1.59-2.86-1.59h-7.33v16.22h-8V150.59c6.35-.4,10.89-.6,15.37-.6,9,0,17.3,2.74,17.3,13.14a11.74,11.74,0,0,1-7.08,11.14c3.37,6,8.07,17.75,8.27,18.27m-25.82-35.1v11.83h8.05c5,0,8.53-1.37,8.53-5.45,0-5.2-3.07-6.58-9-6.58-2.64,0-5,0-7.6.2"/><rect class="cls-1" x="1385.82" y="61.86" width="50.49" height="259.38"/><path class="cls-1" d="M1270.24,172.81c-21.62,0-35.71,8.29-35.71,31v40c0,25,7.94,40.79,35,40.79,33.93,0,38.64-30.3,38.64-58.08,0-28.51-4-53.77-37.92-53.77m10.86,149.4c-21.31,0-32.88-5-44.76-22h-.72v91.71h-50.88V137.08h43l3.22,21.3h.73c13-18.73,28.89-25.27,51.24-25.27,55.22,0,76.88,43.3,76.88,92.77,0,51.6-21.32,96.33-78.66,96.33"/><path class="cls-1" d="M1756.51,325.45c-23.83,60.26-35.34,74-79.39,74a230.19,230.19,0,0,1-27.45-1.76V355.41a170.18,170.18,0,0,0,20.21,1c19.48,0,24.19-5,30.69-21.26l8.3-20.57-71.09-177.55H1693l41.88,125.21h.71l40.78-125.21h54.48Z"/><path class="cls-1" d="M1626.59,275.62V206c0-52-19.86-72.9-72.91-72.9-32.1,0-58.47,7.21-87,21.62l15.85,34.69c20.24-11.22,43-18.78,66.44-18.78,18.37,0,26.7,5.42,26.7,22.37v8.63c-45.11-.33-113.31,5.8-113.31,65.69,0,35,24.17,55.24,58.46,55.24,22.22,0,42.63-7.48,60.25-21.45a17.36,17.36,0,0,0,.46,2.65c5.53,17.42,35.51,18.66,58.16,17.42l1.84-38.55c-9.48-.3-15-1.51-15-7m-49.79-1.75c-12.27,8.63-25.65,14.42-41.17,14.42-14.77,0-23.82-9.38-23.82-24.55,0-32.82,41.15-33.21,65-33.21Z"/><path class="cls-1" d="M660.56,173.15c-31.74,0-41.51,19.14-41.51,54.52,0,36.07,10.11,55.94,41.86,55.94,31.07,0,41.15-19.48,41.15-55.94,0-35.38-9.76-54.52-41.5-54.52m0,149.06c-62.76,0-93.11-38.29-93.11-94.54,0-52.67,27.09-94.56,93.11-94.56,61,0,92.73,36.1,92.73,94.56,0,55.94-29.58,94.54-92.73,94.54"/><polygon class="cls-1" points="406.49 77.55 406.49 122.64 474.34 122.64 474.34 321.24 527.75 321.24 527.75 122.64 595.58 122.64 595.58 77.55 406.49 77.55"/><path class="cls-1" d="M872.23,279.37c-26,.65-28.5-2.69-28.67-18.13,0-.8,0-1.65,0-2.51V177.86h41.86V137.08H843.53v-48H793.37v48h-30v40.78H793V264.1c0,43.67,11.92,57.37,61,57.37,9,0,17.68-1.08,31.38-2.51V278.48c-3.75.37-6.87.73-13.16.89"/><rect class="cls-1" x="1105.67" y="61.86" width="50.52" height="259.38"/><path class="cls-1" d="M1070.29,275.62V206c0-52-19.86-72.9-72.93-72.9-32.08,0-58.45,7.21-87,21.62l15.86,34.69c20.24-11.22,43-18.78,66.42-18.78,18.39,0,26.69,5.42,26.69,22.37v8.63c-45.08-.33-113.27,5.8-113.27,65.69,0,35,24.17,55.24,58.44,55.24,22.22,0,42.65-7.48,60.26-21.45a13.9,13.9,0,0,0,.49,2.65c5.48,17.42,35.48,18.66,58.12,17.42l1.86-38.55c-9.48-.3-15-1.51-15-7m-49.8-1.75c-12.29,8.63-25.65,14.42-41.16,14.42-14.78,0-23.78-9.38-23.78-24.55,0-32.82,41.12-33.21,64.94-33.21Z"/><path class="cls-2" d="M104.16,69.25c7-4.08,7-10.73,0-14.77L12.81,1.73C5.77-2.31,0,1,0,9.12V114.58c0,8.15,5.77,11.48,12.81,7.42Z"/><path class="cls-2" d="M104.16,204.27c7-4.06,7-10.73,0-14.75L12.81,136.76c-7-4-12.81-.76-12.81,7.38V249.61c0,8.14,5.77,11.47,12.81,7.42Z"/><path class="cls-2" d="M104.16,339.3c7-4.07,7-10.7,0-14.75L12.81,271.79C5.77,267.73,0,271,0,279.17V384.66c0,8.12,5.77,11.45,12.81,7.37Z"/><path class="cls-2" d="M117,182.11c0,8.13,5.76,11.48,12.8,7.41l91.34-52.76c7-4.08,7-10.7,0-14.78L129.75,69.25c-7-4.08-12.8-.75-12.8,7.38Z"/><path class="cls-2" d="M117,317.15c0,8.11,5.76,11.45,12.8,7.4l91.34-52.76c7-4.07,7-10.71,0-14.78l-91.34-52.74c-7-4.06-12.8-.74-12.8,7.39Z"/><path class="cls-2" d="M233.89,249.62c0,8.13,5.76,11.48,12.79,7.41L338,204.27c7-4.06,7-10.7,0-14.78l-91.35-52.73c-7-4.08-12.79-.75-12.79,7.38Z"/><polygon class="cls-2" points="875.35 504.1 926.16 504.1 926.16 514.63 888.43 514.63 888.43 542.05 923.47 542.05 923.47 552.33 888.43 552.33 888.43 580.02 928.97 580.02 928.97 590.67 875.35 590.67 875.35 504.1"/><polygon class="cls-2" points="953.57 504.1 971.32 504.1 998.63 580.99 1029.26 504.1 1046.4 504.1 1046.4 590.67 1033.15 590.67 1033.15 537.41 1033.66 521.98 1006.74 590.67 989.71 590.67 965.83 521.48 966.69 537.52 966.69 590.67 953.57 590.67 953.57 504.1"/><path class="cls-2" d="M1107.11,504.1h-29.75v86.57h13.24V561.41h10.12c24.41,0,36-13.25,36-29.16,0-18.11-11.73-28.15-29.63-28.15m-5.64,46.64H1090.6V514.6h13.84c13,0,18.59,6.28,18.59,18.16,0,12.11-8.08,18-21.56,18"/><path class="cls-2" d="M1202.35,576.84l-14.19-19.71a45.54,45.54,0,0,1-7.13.46h-10.14v33.08h-13.21V504.1h29.74c17.4,0,29.64,8.2,29.64,26.21,0,10-4.76,19-15.66,23.62l12.24,16.4c5.51,7.23,11.75,9.93,17.74,11.52L1228.44,592c-8.31-.37-18.13-4.67-26.09-15.18m-20.57-29.4c13.1,0,21.55-4.4,21.55-16.52,0-11.88-6-16.29-18.59-16.29h-13.85v32.81Z"/><polygon class="cls-2" points="1251.59 504.1 1302.4 504.1 1302.4 514.63 1264.69 514.63 1264.69 542.05 1299.71 542.05 1299.71 552.33 1264.69 552.33 1264.69 580.02 1305.23 580.02 1305.23 590.67 1251.59 590.67 1251.59 504.1"/><path class="cls-2" d="M1323,586.61l4.06-10.14a50.53,50.53,0,0,0,21.2,4.42c9.88,0,19.19-3.32,19.19-12.77,0-19.46-42-14.68-42-43.31,0-14.85,13-21.82,27.19-21.82,11,0,17.13,2.22,22.76,4.66l-3.66,9.55c-5.51-1.84-10.54-3.42-18.75-3.42-9.2,0-14.94,3.55-14.94,10.65,0,17.13,42.49,15.29,42.49,43,0,17.27-14.94,24.75-32.08,24.75-13.08,0-20.21-2.69-25.47-5.53"/><path class="cls-2" d="M1428.52,504.1H1446l30.62,86.59H1462.8l-10.54-30.27h-32.82l-11.76,30.27h-13.22Zm20.29,46.18-12-37.38-13.59,37.38Z"/><path class="cls-2" d="M1541.15,576.84l-14.21-19.71a45.36,45.36,0,0,1-7.11.46h-10.14v33.08h-13.25V504.1h29.77c17.39,0,29.63,8.2,29.63,26.21,0,10-4.78,19-15.67,23.62l12.24,16.4c5.52,7.23,11.75,9.93,17.76,11.52l-3,10.17c-8.32-.37-18.1-4.67-26.06-15.18m-20.57-29.4c13.1,0,21.55-4.4,21.55-16.52,0-11.88-6-16.29-18.62-16.29h-13.82v32.81Z"/><rect class="cls-2" x="1590.35" y="504.1" width="13.13" height="86.54"/><path class="cls-2" d="M1657.7,504.1h17.53l30.59,86.59H1692l-10.51-30.27h-32.81l-11.76,30.27h-13.23ZM1678,550.28l-12-37.38-13.59,37.38Z"/><polygon class="cls-2" points="1725.65 504.1 1738.75 504.1 1738.75 579.77 1776.34 579.77 1776.34 590.67 1725.65 590.67 1725.65 504.1"/></g></g></svg>