<svg xmlns="http://www.w3.org/2000/svg" viewBox="0 0 1919.76 567.59"><defs><style>.cls-1{fill:#5a5a5a;}.cls-2{fill:#75797c;}.cls-3{fill:#d9e146;}.cls-4{fill:#5bc8e5;}.cls-5{fill:#e41e2d;}.cls-6{fill:#fdbe3f;}.cls-7{fill:#7f4c9d;}.cls-8{fill:#ee4f97;}</style></defs><g id="Capa_2" data-name="Capa 2"><g id="Capa_1-2" data-name="Capa 1"><path class="cls-1" d="M702.15,478.8q10,8.63,10,24.22,0,16.28-10,25.26t-28.11,9H649.76v30.34H636.39V470.17H674Q692.2,470.17,702.15,478.8Zm-9.53,40.85q6.68-5.5,6.68-16.22,0-10.44-6.68-15.79t-19.21-5.36l-23.65.14v42.72h23.65Q686,525.14,692.62,519.65Z"/><path class="cls-1" d="M729.78,470.17h13.36v85.31h42.59v12.11h-56Z"/><path class="cls-1" d="M876.05,567.59l-10.3-23.66H814.39l-10.16,23.66H790.18l43.28-97.42h13.92l43.14,97.42Zm-56.37-35.77H860.6L840,484.51Z"/><path class="cls-1" d="M974,470.17h13.22v97.42h-13.5l-55.66-75.43v75.43H904.71V470.17h13.5L974,545.74Z"/><path class="cls-1" d="M1002.69,470.17h76.13v12.25h-31.45v85.17H1034V482.42h-31.32Z"/><path class="cls-1" d="M1157.17,567.59l-10.3-23.66h-51.35l-10.16,23.66H1071.3l43.29-97.42h13.91l43.15,97.42Zm-56.36-35.77h40.91l-20.59-47.31Z"/><path class="cls-1" d="M1222.3,470.17h67.64v12.11h-54.27v30.06h48.57v12.11h-48.57v31h55.94v12.11H1222.3Z"/><path class="cls-1" d="M1304.42,470.17H1320l25.61,36.32,25.75-36.32h15.73l-33,46.76,35.77,50.66h-16l-28.25-39.38-28,39.38h-15.73l35.63-50.1Z"/><path class="cls-1" d="M1394.88,470.17H1471v12.25h-31.45v85.17h-13.36V482.42h-31.31Z"/><path class="cls-1" d="M1486.31,470.17H1554v12.11h-54.28v30.06h48.57v12.11h-48.57v31h55.95v12.11h-69.31Z"/><path class="cls-1" d="M1640.1,567.59,1620.75,537c-2.22.19-4,.28-5.43.28h-24.77v30.34h-13.36V470.17h38.13q18.51,0,28.6,8.56T1654,503q0,11.82-5.49,19.9a30.79,30.79,0,0,1-15.8,11.69l22.69,33Zm-24.78-42.45q12.54,0,19.21-5.49t6.68-16.22q0-10.44-6.68-15.79t-19.21-5.36h-24.77v42.86Z"/><path class="cls-1" d="M1747.12,470.17h13.22v97.42h-13.5l-55.67-75.43v75.43h-13.36V470.17h13.5l55.81,75.57Z"/><path class="cls-1" d="M1860.68,567.59l-10.29-23.66H1799l-10.16,23.66h-14l43.28-97.42H1832l43.15,97.42Zm-56.36-35.77h40.92l-20.6-47.31Z"/><path class="cls-2" d="M1837.88,169.75c0-21.13,18.24-38.22,40.95-38.22,22.47,0,40.93,17.09,40.93,38.22,0,20.84-18.46,38-40.93,38-22.71,0-40.95-17.19-40.95-38m6.76,0c0,17.31,15.2,31.68,34,31.68,18.92,0,34.09-14.37,34.09-31.68,0-17.48-15.17-31.65-34.09-31.65-18.77,0-34,14.17-34,31.65m52.89,20.5h-9.28l-6.13-14.46c-.78-1.31-.78-1.56-2.82-1.56H1872v16h-7.91V148.81c6.26-.39,10.71-.63,15.2-.63,9,0,17,2.73,17,13a11.52,11.52,0,0,1-7,11c3.34,5.9,8,17.56,8.21,18.07M1872,155.58v11.69h8c4.91,0,8.42-1.37,8.42-5.41,0-5.11-3-6.47-8.86-6.47-2.63,0-5,0-7.53.19"/><rect class="cls-3" x="1369.28" y="61.12" width="49.91" height="256.33"/><path class="cls-4" d="M1255.09,170.77c-21.35,0-35.31,8.18-35.31,30.63V241c0,24.64,7.9,40.29,34.63,40.29,33.5,0,38.12-29.91,38.12-57.38,0-28.19-3.91-53.13-37.44-53.13m10.71,147.62c-21,0-32.45-5-44.21-21.74h-.73v90.62H1170.6V135.42H1213l3.19,21.06h.73c12.84-18.48,28.51-24.95,50.62-24.95,54.56,0,75.94,42.79,75.94,91.66,0,51-21,95.2-77.72,95.2"/><path class="cls-5" d="M1735.55,321.57c-23.52,59.56-34.91,73.1-78.44,73.1a227.16,227.16,0,0,1-27.13-1.76V351.18a164.48,164.48,0,0,0,20,1.08c19.24,0,23.91-5,30.3-21l8.25-20.31-70.24-175.49h54.54l41.38,123.78h.73l40.28-123.78H1809Z"/><path class="cls-6" d="M1607.17,272.35V203.59c0-51.37-19.6-72.06-72-72.06-31.75,0-57.81,7.13-86,21.4l15.68,34.25c20-11.07,42.44-18.55,65.59-18.55,18.17,0,26.39,5.34,26.39,22.11v8.52c-44.55-.32-112,5.75-112,64.91,0,34.62,23.89,54.58,57.75,54.58,22,0,42.17-7.39,59.56-21.15a18,18,0,0,0,.48,2.58c5.46,17.26,35.07,18.43,57.47,17.26l1.79-38.13c-9.39-.29-14.82-1.51-14.82-7M1558,270.6c-12.13,8.56-25.3,14.27-40.64,14.27-14.64,0-23.55-9.28-23.55-24.26,0-32.42,40.67-32.77,64.19-32.77Z"/><path class="cls-2" d="M652.7,171.12c-31.4,0-41,18.89-41,53.85,0,35.64,10,55.27,41.38,55.27,30.68,0,40.61-19.23,40.61-55.27,0-35-9.61-53.85-40.95-53.85m0,147.27c-62.06,0-92-37.83-92-93.42,0-52.05,26.73-93.44,92-93.44,60.26,0,91.62,35.67,91.62,93.44,0,55.27-29.24,93.42-91.62,93.42"/><polygon class="cls-2" points="401.63 76.6 401.63 121.18 468.69 121.18 468.69 317.44 521.47 317.44 521.47 121.18 588.45 121.18 588.45 76.6 401.63 76.6"/><path class="cls-2" d="M861.79,276.05c-25.66.63-28.12-2.68-28.32-17.92V175.74h41.37V135.42H833.47V88H783.88v47.38H754.33v40.32h29.24V261c0,43.09,11.76,56.65,60.25,56.65,8.91,0,17.46-1.07,31-2.51v-40c-3.72.38-6.79.73-13.05.87"/><rect class="cls-2" x="1092.48" y="61.12" width="49.94" height="256.33"/><path class="cls-2" d="M1057.52,272.35V203.59c0-51.37-19.61-72.06-72-72.06-31.73,0-57.78,7.13-86,21.4l15.66,34.25c20-11.07,42.46-18.55,65.64-18.55,18.21,0,26.39,5.34,26.39,22.11v8.52c-44.58-.32-112,5.75-112,64.91,0,34.62,23.87,54.58,57.75,54.58,22,0,42.15-7.39,59.56-21.15a15.35,15.35,0,0,0,.43,2.58c5.46,17.26,35.12,18.43,57.47,17.26l1.81-38.13c-9.37-.29-14.79-1.51-14.79-7m-49.21-1.75c-12.13,8.56-25.35,14.27-40.63,14.27-14.64,0-23.55-9.28-23.55-24.26,0-32.42,40.61-32.77,64.18-32.77Z"/><path class="cls-6" d="M102.93,68.42c6.91-4,6.91-10.56,0-14.61L12.65,1.71C5.68-2.31,0,1,0,9V113.27c0,8,5.68,11.3,12.65,7.3Z"/><path class="cls-7" d="M102.93,201.84c6.91-4,6.91-10.57,0-14.61l-90.28-52.1c-7-4-12.65-.73-12.65,7.28V246.66c0,8.07,5.68,11.32,12.65,7.28Z"/><path class="cls-8" d="M102.93,335.26c6.91-4,6.91-10.57,0-14.56L12.65,268.55c-7-4-12.65-.73-12.65,7.3V380.08c0,8,5.68,11.33,12.65,7.31Z"/><path class="cls-4" d="M115.52,179.93c0,8.06,5.69,11.34,12.65,7.3l90.28-52.1c7-4,7-10.56,0-14.61l-90.28-52.1c-7-4-12.65-.73-12.65,7.3Z"/><path class="cls-3" d="M115.52,313.39c0,8,5.69,11.3,12.65,7.31l90.28-52.15c7-4,7-10.57,0-14.61l-90.28-52.1c-7-4-12.65-.73-12.65,7.31Z"/><path class="cls-5" d="M231.09,246.66c0,8.07,5.67,11.32,12.66,7.28L334,201.84c7-4,7-10.57,0-14.61l-90.25-52.1c-7-4-12.66-.73-12.66,7.31Z"/></g></g></svg>