<?xml version="1.0" encoding="utf-8"?>
<!-- Generator: Adobe Illustrator 26.1.0, SVG Export Plug-In . SVG Version: 6.00 Build 0)  -->
<svg version="1.1" id="Capa_1" xmlns="http://www.w3.org/2000/svg" xmlns:xlink="http://www.w3.org/1999/xlink" x="0px" y="0px"
	 viewBox="0 0 500 500" style="enable-background:new 0 0 500 500;" xml:space="preserve">
<style type="text/css">
	.st0{fill:url(#SVGID_1_);}
	.st1{opacity:0.6;fill:#4D0089;}
	.st2{fill:#4D0089;}
	.st3{opacity:0.4;fill:#4D0089;}
	.st4{opacity:0.4;fill:#00E4FF;}
	.st5{opacity:0.6;fill:#00E4FF;}
	.st6{fill:#00E4FF;}
	.st7{fill:url(#SVGID_00000028288165709243063610000014142805447312436149_);}
	.st8{fill:url(#SVGID_00000029035480120929173620000010460984787005594771_);}
</style>
<g>
	<g>
		<path d="M17.7,359.92v-50.94h54.43v9.26H29.1v14.11h37.47v9.26H29.1v18.31H17.7z"/>
		<path d="M78.83,317.18v-8.05H89.3v8.05H78.83z M78.9,359.92v-36.69h10.33v36.69H78.9z"/>
		<path d="M115.87,360.28c-6.37,0-11.33-1.58-14.89-4.74c-3.56-3.16-5.34-7.8-5.34-13.93c0-6.17,1.78-10.84,5.34-14
			c3.56-3.16,8.52-4.74,14.89-4.74h17.81c4.18,0,7.37,0.99,9.58,2.96c2.21,1.97,3.31,4.79,3.31,8.44c0,7.46-4.3,11.18-12.9,11.18
			h-26.93c1,4.42,4.04,6.63,9.12,6.63h28.85v8.19H115.87z M115.87,331.07c-4.89,0-7.91,2.07-9.05,6.2h26.36
			c0.95,0,1.7-0.28,2.24-0.85c0.55-0.57,0.82-1.35,0.82-2.35c0-2-1.02-2.99-3.06-2.99H115.87z"/>
		<path d="M152.99,359.92v-50.94h10.33v50.94H152.99z"/>
		<path d="M189.97,359.92c-6.37,0-11.33-1.57-14.89-4.7c-3.56-3.13-5.34-7.67-5.34-13.61c0-5.99,1.78-10.54,5.34-13.68
			c3.56-3.14,8.52-4.7,14.89-4.7h23.87v8.19h-23.87c-3.09,0-5.45,0.84-7.09,2.53c-1.64,1.69-2.46,4.24-2.46,7.66
			c0,3.37,0.82,5.9,2.46,7.59c1.64,1.69,4,2.53,7.09,2.53h24.58v8.19H189.97z M206,359.92v-50.94h10.33v50.94H206z"/>
		<path d="M276.39,360.28c-9.4,0-16.6-2.17-21.59-6.52c-4.99-4.35-7.48-10.79-7.48-19.34c0-8.5,2.49-14.94,7.48-19.31
			c4.99-4.37,12.18-6.53,21.59-6.48l25.65,0.14v9.12h-24.86c-6.18,0-10.76,1.31-13.75,3.92c-2.99,2.61-4.49,6.82-4.49,12.61
			c0,5.8,1.5,10.01,4.49,12.65c2.99,2.64,7.58,3.95,13.75,3.95h25.58v9.26H276.39z"/>
		<path d="M308.8,359.92v-50.94h10.33v50.94H308.8z"/>
		<path d="M345.78,360.28c-6.37,0-11.33-1.58-14.89-4.74c-3.56-3.16-5.34-7.8-5.34-13.93c0-6.17,1.78-10.84,5.34-14
			c3.56-3.16,8.52-4.74,14.89-4.74h13.18c6.36,0,11.33,1.58,14.89,4.74c3.56,3.16,5.34,7.83,5.34,14c0,6.13-1.78,10.77-5.34,13.93
			c-3.56,3.16-8.53,4.74-14.89,4.74H345.78z M345.78,352.09h13.18c3.09,0,5.45-0.86,7.09-2.56c1.64-1.71,2.46-4.35,2.46-7.91
			c0-3.61-0.82-6.27-2.46-7.98c-1.64-1.71-4-2.56-7.09-2.56h-13.18c-3.09,0-5.45,0.86-7.09,2.56c-1.64,1.71-2.46,4.37-2.46,7.98
			c0,3.56,0.82,6.2,2.46,7.91C340.33,351.23,342.69,352.09,345.78,352.09z"/>
		<path d="M397.29,359.92c-4.18,0-7.23-1.04-9.15-3.13c-1.92-2.09-2.89-4.8-2.89-8.12v-25.43h10.33v24.22
			c0,2.85,1.43,4.27,4.28,4.27h14.82c2.85,0,4.28-1.42,4.28-4.27v-24.22h10.33v25.43c0,3.33-0.96,6.03-2.89,8.12
			c-1.92,2.09-4.98,3.13-9.15,3.13H397.29z"/>
		<path d="M455.57,359.92c-6.37,0-11.33-1.57-14.89-4.7c-3.56-3.13-5.34-7.67-5.34-13.61c0-5.99,1.78-10.54,5.34-13.68
			c3.56-3.14,8.52-4.7,14.89-4.7h23.87v8.19h-23.87c-3.09,0-5.45,0.84-7.09,2.53c-1.64,1.69-2.46,4.24-2.46,7.66
			c0,3.37,0.82,5.9,2.46,7.59c1.64,1.69,4,2.53,7.09,2.53h24.58v8.19H455.57z M471.6,359.92v-50.94h10.33v50.94H471.6z"/>
	</g>
	<g>
		<linearGradient id="SVGID_1_" gradientUnits="userSpaceOnUse" x1="99.7607" y1="200.2995" x2="365.3172" y2="200.2995">
			<stop  offset="0" style="stop-color:#00E4FF"/>
			<stop  offset="1" style="stop-color:#4D0089"/>
		</linearGradient>
		<path class="st0" d="M311.91,238.81c-14.36,0-25.01-3.06-31.97-9.19c-6.96-6.13-10.43-15.93-10.43-29.4
			c0-13.47,3.48-23.24,10.43-29.31c6.96-6.07,17.61-9.11,31.97-9.11h15.38v-21.2l-17.2-0.33c-21.86-0.11-38.59,4.91-50.18,15.07
			c-11.59,10.16-17.39,25.12-17.39,44.88c0,19.88,5.8,34.86,17.39,44.97c11.59,10.1,28.32,15.15,50.18,15.15h61.28v-21.53H311.91z"
			/>
		<rect x="348.49" y="140.59" class="st1" width="21.2" height="21.2"/>
		<rect x="327.29" y="140.59" class="st2" width="21.2" height="21.2"/>
		<rect x="369.69" y="140.59" class="st3" width="21.2" height="21.2"/>
		<rect x="412.09" y="140.59" class="st3" width="21.2" height="21.2"/>
		<rect x="109.4" y="195.41" class="st4" width="21.53" height="21.53"/>
		<rect x="66.34" y="195.41" class="st4" width="21.53" height="21.53"/>
		<rect x="130.93" y="195.41" class="st5" width="21.53" height="21.53"/>
		<rect x="152.47" y="195.41" class="st6" width="21.53" height="21.53"/>
		<rect x="174" y="195.41" class="st6" width="21.53" height="21.53"/>
		<g>
			
				<linearGradient id="SVGID_00000081612978276800851600000013660224313066698124_" gradientUnits="userSpaceOnUse" x1="104.9632" y1="168.2522" x2="359.9861" y2="168.2522">
				<stop  offset="0" style="stop-color:#00E4FF"/>
				<stop  offset="1" style="stop-color:#4D0089"/>
			</linearGradient>
			<polygon style="fill:url(#SVGID_00000081612978276800851600000013660224313066698124_);" points="109.4,141.09 109.4,195.41 
				130.88,195.41 130.88,162.62 230.92,162.62 230.92,141.09 			"/>
			
				<linearGradient id="SVGID_00000050648489656619173860000007511661084622475137_" gradientUnits="userSpaceOnUse" x1="108.6176" y1="238.2281" x2="153.6972" y2="238.2281">
				<stop  offset="0" style="stop-color:#00E4FF"/>
				<stop  offset="1" style="stop-color:#4D0089"/>
			</linearGradient>
			
				<rect x="109.4" y="216.95" style="fill:url(#SVGID_00000050648489656619173860000007511661084622475137_);" width="21.48" height="42.56"/>
		</g>
	</g>
</g>
</svg>
