<svg xmlns="http://www.w3.org/2000/svg" viewBox="0 0 2243.24 370.97"><defs><style>.cls-1{fill:#5a5a5a;}.cls-2{fill:#b7d027;}.cls-3{fill:#4fabd6;}.cls-4{fill:#d64437;}.cls-5{fill:#efab00;}.cls-6{fill:#7d54aa;}.cls-7{fill:#d34585;}.cls-8{fill:#d44384;}</style></defs><g id="Capa_2" data-name="Capa 2"><g id="Capa_1-2" data-name="Capa 1"><path class="cls-1" d="M1978.81,177.1h39.57v89c-24.35,18.26-60.88,30.77-93.69,30.77-70.68,0-125.14-52.42-125.14-120.4S1855,56.7,1927.4,56.7c34.16,0,69,13.18,92.68,33.82l-25.71,33.14c-17.92-16.57-43-26.72-67-26.72-45.66,0-81.52,34.84-81.52,79.49,0,45,36.2,79.82,81.86,79.82,16.24,0,34.83-5.75,51.07-14.89Z"/><path class="cls-1" d="M2243.24,204.16c0,55.13-38.55,92.33-95,92.33-57.17,0-95.72-37.2-95.72-92.33,0-54.79,38.55-91.66,95.72-91.66C2204.69,112.5,2243.24,149.37,2243.24,204.16Zm-146.45.67c0,32.47,21,54.8,51.42,54.8,29.76,0,50.73-22.33,50.73-54.8S2178,150,2148.21,150C2117.76,150,2096.79,172.37,2096.79,204.83Z"/><rect class="cls-2" x="1287.05" y="57.45" width="46.92" height="240.89"/><path class="cls-3" d="M1179.72,160.5c-20.09,0-33.18,7.7-33.18,28.82V226.5c0,23.16,7.39,37.88,32.52,37.88,31.5,0,35.86-28.13,35.86-53.95,0-26.47-3.7-49.93-35.2-49.93m10.07,138.75c-19.78,0-30.53-4.67-41.57-20.43h-.67V364H1100.3V127.32h39.89l3,19.79h.67c12.07-17.42,26.81-23.48,47.6-23.48,51.27,0,71.37,40.21,71.37,86.15,0,47.93-19.78,89.47-73,89.47"/><path class="cls-4" d="M1631.33,302.27c-22.13,56-32.84,68.7-73.74,68.7a212.74,212.74,0,0,1-25.49-1.66V330.1a161.36,161.36,0,0,0,18.77,1c18.09,0,22.48-4.68,28.5-19.76l7.72-19.11-66-164.89h51.26l38.9,116.29h.67l37.86-116.29h50.6Z"/><path class="cls-5" d="M1510.66,256V191.35c0-48.26-18.44-67.72-67.7-67.72-29.81,0-54.31,6.71-80.77,20.1l14.73,32.2c18.79-10.4,39.91-17.43,61.68-17.43,17.09,0,24.8,5,24.8,20.78v8c-41.88-.31-105.22,5.39-105.22,61,0,32.51,22.45,51.28,54.29,51.28,20.64,0,39.6-6.94,56-19.89a14.15,14.15,0,0,0,.43,2.43c5.12,16.2,33,17.34,54,16.2l1.71-35.81C1515.77,262.24,1510.66,261.1,1510.66,256Zm-46.24-1.64c-11.4,8-23.82,13.39-38.21,13.39-13.74,0-22.12-8.7-22.12-22.78,0-30.49,38.19-30.84,60.33-30.84Z"/><path class="cls-1" d="M613.49,160.82c-29.5,0-38.57,17.78-38.57,50.63,0,33.51,9.4,51.95,38.89,51.95,28.84,0,38.21-18.1,38.21-51.95,0-32.85-9-50.63-38.53-50.63m0,138.43c-58.31,0-86.47-35.54-86.47-87.8,0-48.92,25.14-87.82,86.47-87.82,56.65,0,86.12,33.52,86.12,87.82,0,51.95-27.48,87.8-86.12,87.8"/><polygon class="cls-1" points="377.53 72.02 377.53 113.91 440.52 113.91 440.52 298.34 490.13 298.34 490.13 113.91 553.12 113.91 553.12 72.02 377.53 72.02"/><path class="cls-1" d="M810.05,259.47c-24.14.59-26.44-2.5-26.61-16.85,0-.75,0-1.53,0-2.34v-75.1H822.3V127.32H783.42V82.76h-46.6v44.56H709v37.86H736.5V245.3c0,40.54,11.07,53.28,56.65,53.28,8.37,0,16.41-1,29.15-2.34V258.65C818.79,259,815.91,259.32,810.05,259.47Z"/><rect class="cls-1" x="1026.87" y="57.45" width="46.92" height="240.89"/><path class="cls-1" d="M994,256v-7.27s0-.06,0-.09V191.35c0-48.26-18.44-67.72-67.71-67.72-29.81,0-54.31,6.71-80.77,20.1l14.73,32.2c18.79-10.4,39.91-17.43,61.68-17.43,17.09,0,24.8,5,24.8,20.78v8c-41.88-.31-105.22,5.39-105.22,61,0,32.51,22.45,51.28,54.29,51.28,20.64,0,39.6-6.94,56-19.89a14.15,14.15,0,0,0,.43,2.43c5.12,16.2,33,17.34,54,16.2l1.71-35.81C999.12,262.24,994,261.1,994,256Zm-46.24-1.64c-11.4,8-23.81,13.39-38.21,13.39-13.74,0-22.12-8.7-22.12-22.78,0-30.49,38.19-30.84,60.33-30.84Z"/><path class="cls-5" d="M96.73,64.31c6.53-3.77,6.53-9.94,0-13.71l-84.85-49C5.35-2.16,0,.92,0,8.47v98c0,7.55,5.35,10.63,11.88,6.86Z"/><path class="cls-6" d="M96.73,189.72c6.53-3.77,6.53-9.94,0-13.72L11.88,127C5.35,123.24,0,126.33,0,133.87v98c0,7.54,5.35,10.63,11.88,6.86Z"/><path class="cls-7" d="M96.73,315.13c6.53-3.78,6.53-9.95,0-13.72l-84.85-49C5.35,248.65,0,251.74,0,259.28v98c0,7.55,5.35,10.63,11.88,6.86Z"/><path class="cls-8" d="M96.73,315.13c6.53-3.78,6.53-9.95,0-13.72l-84.85-49C5.35,248.65,0,251.74,0,259.28v98c0,7.55,5.35,10.63,11.88,6.86Z"/><path class="cls-3" d="M108.61,169.14c0,7.55,5.34,10.63,11.87,6.86l84.85-49c6.53-3.78,6.53-10,0-13.72l-84.85-49c-6.53-3.77-11.87-.68-11.87,6.86Z"/><path class="cls-2" d="M108.61,294.55c0,7.55,5.34,10.63,11.87,6.86l84.85-49c6.53-3.77,6.53-9.94,0-13.71l-84.85-49c-6.53-3.77-11.87-.69-11.87,6.86Z"/><path class="cls-4" d="M217.21,231.85c0,7.54,5.35,10.63,11.88,6.86l84.85-49c6.53-3.77,6.53-9.94,0-13.72l-84.85-49c-6.53-3.78-11.88-.69-11.88,6.85Z"/></g></g></svg>