<svg xmlns="http://www.w3.org/2000/svg" width="17.355" height="19.884" viewBox="0 0 17.355 19.884"><defs><style>.a{fill:#fdbe3f;}.b{fill:#7f4c9d;}.c{fill:#ee4f97;}.d{fill:#5bc8e5;}.e{fill:#d9e146;}.f{fill:#e41e2d;}</style></defs><g transform="translate(-40.614 -17.553)"><path class="a" d="M5.262,3.49c.36-.216.36-.541,0-.757L.649.065C.288-.115,0,.029,0,.462V5.8c0,.4.288.577.649.36Z" transform="translate(40.614 17.563)"/><path class="b" d="M5.262,22.424c.36-.216.36-.541,0-.757L.649,19.036C.288,18.82,0,19,0,19.4v5.334c0,.4.288.577.649.36Z" transform="translate(40.614 5.441)"/><path class="c" d="M5.262,41.324c.36-.216.36-.541,0-.757L.649,37.936C.288,37.72,0,37.9,0,38.3v5.334c0,.4.288.577.649.36Z" transform="translate(40.614 -6.647)"/><path class="d" d="M16.4,15.231c0,.4.288.577.649.36l4.613-2.631c.36-.216.36-.541,0-.757L17.049,9.536c-.36-.216-.649-.036-.649.36v5.334Z" transform="translate(30.125 11.517)"/><path class="e" d="M16.4,34.131c0,.4.288.577.649.36l4.613-2.631c.36-.216.36-.541,0-.757l-4.613-2.667c-.36-.216-.649-.036-.649.36v5.334Z" transform="translate(30.125 -0.571)"/><path class="f" d="M32.8,24.667c0,.4.288.577.649.36l4.613-2.667c.36-.216.36-.541,0-.757l-4.613-2.667c-.36-.216-.649-.036-.649.36Z" transform="translate(19.636 5.505)"/></g></svg>