<?xml version="1.0" encoding="utf-8"?>
<!-- Generator: Adobe Illustrator 24.1.0, SVG Export Plug-In . SVG Version: 6.00 Build 0)  -->
<svg version="1.1" id="Capa_1" xmlns="http://www.w3.org/2000/svg" xmlns:xlink="http://www.w3.org/1999/xlink" x="0px" y="0px"
	 viewBox="0 0 92 24" style="enable-background:new 0 0 92 24;" xml:space="preserve">
<style type="text/css">
	.st0{enable-background:new    ;}
	.st1{fill:#7716FA;}
	.st2{fill:none;}
</style>
<g id="Grupo_9266" transform="translate(-1251 -119)">
	<g class="st0">
		<path class="st1" d="M1282.1,133.9h-4.5l-0.9,2.1h-1.7l4.1-9.1h1.7l4.1,9.1h-1.8L1282.1,133.9z M1281.6,132.6l-1.7-4l-1.7,4
			H1281.6z"/>
		<path class="st1" d="M1285.2,132.5c0-2.1,1.6-3.5,3.8-3.5c1.4,0,2.4,0.6,3,1.6l-1.2,0.7c-0.4-0.7-1-1-1.7-1
			c-1.2,0-2.1,0.8-2.1,2.2c0,1.4,0.9,2.2,2.1,2.2c0.7,0,1.3-0.3,1.7-1l1.2,0.7c-0.5,1-1.6,1.6-3,1.6
			C1286.7,136.1,1285.2,134.6,1285.2,132.5z"/>
		<path class="st1" d="M1297.6,135.6c-0.4,0.3-1,0.5-1.6,0.5c-1.5,0-2.4-0.8-2.4-2.3v-3.3h-1.1v-1.3h1.1v-1.6h1.6v1.6h1.9v1.3h-1.9
			v3.3c0,0.7,0.3,1,1,1c0.3,0,0.7-0.1,0.9-0.3L1297.6,135.6z"/>
		<path class="st1" d="M1305.6,129.1v6.9h-1.5v-0.9c-0.5,0.6-1.3,1-2.2,1c-1.8,0-3-1-3-3.1v-4h1.6v3.7c0,1.3,0.6,1.9,1.6,1.9
			c1.1,0,1.9-0.7,1.9-2.1v-3.5H1305.6z"/>
		<path class="st1" d="M1313.6,131.9v4.1h-1.5v-0.8c-0.4,0.6-1.1,0.9-2.2,0.9c-1.6,0-2.6-0.9-2.6-2.1c0-1.2,0.8-2.1,2.9-2.1h1.8
			v-0.1c0-0.9-0.6-1.5-1.7-1.5c-0.8,0-1.6,0.3-2.1,0.7l-0.6-1.2c0.7-0.6,1.8-0.9,2.9-0.9C1312.4,129,1313.6,129.9,1313.6,131.9z
			 M1311.9,133.8V133h-1.7c-1.1,0-1.4,0.4-1.4,0.9c0,0.6,0.5,1,1.3,1C1311,134.9,1311.7,134.5,1311.9,133.8z"/>
		<path class="st1" d="M1315.6,126.4h1.6v9.6h-1.6V126.4z"/>
		<path class="st1" d="M1319.2,126.9c0-0.5,0.4-1,1-1c0.6,0,1,0.4,1,0.9c0,0.6-0.4,1-1,1C1319.6,127.9,1319.2,127.5,1319.2,126.9z
			 M1319.4,129.1h1.6v6.9h-1.6V129.1z"/>
		<path class="st1" d="M1328.6,134.7v1.3h-6v-1l3.8-4.6h-3.7v-1.3h5.8v1l-3.8,4.6H1328.6z"/>
		<path class="st1" d="M1335.9,131.9v4.1h-1.5v-0.8c-0.4,0.6-1.1,0.9-2.2,0.9c-1.6,0-2.6-0.9-2.6-2.1c0-1.2,0.8-2.1,2.9-2.1h1.8
			v-0.1c0-0.9-0.6-1.5-1.7-1.5c-0.8,0-1.6,0.3-2.1,0.7l-0.6-1.2c0.7-0.6,1.8-0.9,2.9-0.9C1334.7,129,1335.9,129.9,1335.9,131.9z
			 M1334.3,133.8V133h-1.7c-1.1,0-1.4,0.4-1.4,0.9c0,0.6,0.5,1,1.3,1C1333.3,134.9,1334,134.5,1334.3,133.8z"/>
		<path class="st1" d="M1342,129v1.5c-0.1,0-0.3,0-0.4,0c-1.2,0-2,0.7-2,2.1v3.4h-1.6v-6.9h1.5v1C1340,129.3,1340.8,129,1342,129z"
			/>
	</g>
	<g id="autorenew-24px" transform="translate(1251 119)">
		<g id="Trazado_6594">
			<path class="st1" d="M12,6v3l4-4l-4-4v3c-4.4,0-8,3.6-8,8c0,1.5,0.4,3,1.2,4.3l1.5-1.5C6.2,13.9,6,13,6,12C6,8.7,8.7,6,12,6z
				 M18.8,7.7l-1.5,1.5c1.6,2.9,0.4,6.5-2.5,8.1C14,17.8,13,18,12,18v-3l-4,4l4,4v-3c4.4,0,8-3.6,8-8C20,10.5,19.6,9,18.8,7.7z"/>
		</g>
		<g id="Trazado_6595">
			<path class="st2" d="M0,0h24v24H0V0z"/>
		</g>
	</g>
</g>
</svg>
