<svg xmlns="http://www.w3.org/2000/svg" viewBox="0 0 799.83 385.83"><defs><style>.cls-1{fill:#00befd;}.cls-2{fill:#17c4fd;}.cls-3{fill:#11c2fd;}.cls-4{fill:#22c7fd;}.cls-5{fill:#34cbfd;}.cls-6{fill:#36ccfd;}.cls-7{fill:#26c8fd;}.cls-8{fill:#29c9fd;}.cls-9{fill:#33cbfd;}.cls-10{fill:#20c6fd;}.cls-11{fill:#4cd1fd;}.cls-12{fill:#49d0fd;}.cls-13{fill:#63d7fd;}</style></defs><g id="Capa_2" data-name="Capa 2"><g id="Capa_1-2" data-name="Capa 1"><path class="cls-1" d="M799.83,31v1c-3.65,15.34-12.75,22.47-28.78,22.48q-50.47,0-100.94,0a102.46,102.46,0,0,0-13.45.82c-13.56,1.79-22.18,11.25-22.26,25q-.17,29.72,0,59.45a24.48,24.48,0,0,0,24.84,24.67q39.48.2,79,0c6.85,0,13.65.73,20.42,1.36,12.07,1.1,23.73,13.63,22.8,28.33-.87,13.83-11.48,25.58-24.69,26.26-3.33.17-6.67.13-10,0-29.65-.73-59.26,1.27-88.9,1.09-11.86-.07-23.06,10.63-23.3,22.49-.44,21.31-.49,42.64,0,64,.31,13.49,11.21,23.36,25,23.4,36,.09,72,0,107.94.06,7.72,0,15.3.84,21.89,5.6s10,10.88,10.45,18.86v9q-2.6,16.73-19,21h-189c-9.15-1.42-14.69-7.44-18.32-15.25-2.26-4.87-1.31-10.5-2.17-15.74a18.62,18.62,0,0,1-.07-3q0-162.33,0-324.65c0-10.79,4.63-18.77,13.6-24.54,2.49-1.6,5.46-1.38,8-2.66h3c2.09,1,4.32.27,6.48.52,2.61,0,5.21,0,7.82,0,3.66,0,7.32,0,11,0q19.43,0,38.84,0c1.62,0,3.32.45,4.86-.49h46c4.06,1.15,8.2.43,12.3.47,11.75.12,23.5,0,35.24.05H770.2c2.53-.28,5.15.6,7.64-.51h1c12.24,2.32,19.4,9.5,21,22v1A13,13,0,0,0,799.83,31Z"/><path class="cls-1" d="M253.11.9c18.12,5.53,25.17,24.68,14.95,40.77Q184.69,172.9,101.13,304c-5.65,8.84-3.61,22.27,8.09,27.64a15.59,15.59,0,0,0,6.78,1.16q59.22.15,118.42.34c4,0,8,.62,12,.4,13.53-.73,23.73,11,25.48,21.07,2.26,13-4.13,24.64-16.41,29.86-.87.37-2.05.2-2.52,1.33H20c-11.24-2.1-17.61-9.05-20-20v-12c1.74-9.52,8.22-16.56,13.11-24.35Q68.4,241.56,124.52,154.17q22.06-34.48,43.8-69.19a13.63,13.63,0,0,1,.78-1.28c10-12.4,2.8-29.71-16.78-29.49-28.14.33-56.28.09-84.42.08-9.16,0-18.32.18-27.47,0C26,53.87,16.35,45.89,12.48,32.94,9,21.19,17.57,1.27,34,0H45c3.55,1.09,7.2.24,10.79.52q45.07,0,90.13,0,33,0,66,0C225.62.76,239.37,0,253.11.9Z"/><path class="cls-1" d="M532.07.82c14.78,4,22.17,15.61,19.79,31.63C550.6,41,540.69,53.08,525.77,53c-16.81-.12-33.63-.23-50.44.66-9.67.51-21.79,13-21.89,23.62-.8,82.24-.26,164.49-.64,246.74,0,10.32-.07,20.64-.21,31-.21,15.35-7.06,24.88-21.47,30a5.82,5.82,0,0,0-1.21.81h-14c-9.93-3.71-17.64-9.73-21.36-20.08-1.74-4.86-1.16-9.89-1.17-14.83q-.37-135.09-.6-270.19c0-13.09-6.46-22-18.71-26.52a19.61,19.61,0,0,0-6.84-1.09q-23.22-.06-46.45-.27c-14.42-.13-25.17-8.92-27.16-22.1C291.54,17,298.94,5.49,312.79.91,326.15,0,339.53.76,352.9.52q29.5,0,59,0H526.56C528.39.64,530.26.22,532.07.82Z"/><path class="cls-2" d="M513.92,1h-102c-.33-.22-.43-.44-.32-.66s.21-.32.32-.32h102c.33.21.44.42.34.64S514,1,513.92,1Z"/><path class="cls-3" d="M146,1H55c-.32-.23-.42-.45-.31-.67S54.88,0,55,0h91c.33.21.44.43.33.65S146.09,1,146,1Z"/><path class="cls-4" d="M146,1c0-.33,0-.65,0-1h66c.32.21.43.42.33.64S212.08,1,212,1Z"/><path class="cls-4" d="M411.91,0V1h-59c-.32-.22-.42-.44-.31-.65s.22-.32.33-.32Z"/><path class="cls-3" d="M758.85,1C744.58,1,730.3,1,716,1c-1.75,0-3.7.67-5.17-1h48c.33.22.44.43.33.65S759,1,758.85,1Z"/><path class="cls-3" d="M664.86,0c-1.47,1.64-3.42,1-5.16,1-13,.05-25.89,0-38.84,0-.32-.22-.43-.44-.32-.66s.22-.33.33-.33Z"/><path class="cls-5" d="M212,1c0-.32,0-.64,0-1h41a2.14,2.14,0,0,0,.16.9Z"/><path class="cls-5" d="M352.93,0c0,.32,0,.65,0,1L312.79.91a1.88,1.88,0,0,0,.14-.91Z"/><path class="cls-6" d="M513.92,1c0-.32,0-.64,0-1h13c.32.19.43.39.34.61s-.19.32-.29.32Z"/><path class="cls-7" d="M758.85,1c0-.33,0-.66,0-1h12c.32.2.43.4.34.62s-.2.33-.3.33Z"/><path class="cls-4" d="M620.87,0c0,.33,0,.66,0,1l-11,0c-.32-.22-.42-.44-.31-.65s.21-.32.32-.32Z"/><path class="cls-8" d="M55,0c0,.33,0,.66,0,1C51.66.53,48.15,2.07,45,0Z"/><path class="cls-9" d="M609.87,0c0,.32,0,.65,0,1l-8,0c-.3-.22-.4-.42-.29-.63s.22-.29.32-.29Z"/><path class="cls-10" d="M799.83,31a7.55,7.55,0,0,1,0-8Z"/><path class="cls-11" d="M770.88,1c0-.32,0-.63,0-.95h7C775.75,2,773.19.59,770.88,1Z"/><path class="cls-12" d="M601.87,0c0,.31,0,.61,0,.92-2-.25-4.22,1-6-.92Z"/><path class="cls-13" d="M526.94.93a7.25,7.25,0,0,1-.05-.93h5c.07.27.13.55.18.82Z"/></g></g></svg>