<?xml version="1.0" encoding="UTF-8"?><svg xmlns="http://www.w3.org/2000/svg" xmlns:xlink="http://www.w3.org/1999/xlink" viewBox="0 0 328.28 215.64"><defs><style>.f{fill:url(#e);}.g{fill:url(#d);}.h,.i{opacity:.6;}.h,.j,.k{fill:#00e4ff;}.i,.l,.m{fill:#4d0089;}.l,.j{opacity:.8;}.m,.k{opacity:.4;}</style><linearGradient id="d" x1="52.27" y1="48.32" x2="279.17" y2="48.32" gradientTransform="matrix(1, 0, 0, 1, 0, 0)" gradientUnits="userSpaceOnUse"><stop offset="0" stop-color="#00e4ff"/><stop offset="1" stop-color="#4d0089"/></linearGradient><linearGradient id="e" x1="52.27" y1="48.32" x2="279.17" y2="48.32" xlink:href="#d"/></defs><g id="a"/><g id="b"><g id="c"><g><g><g><path d="M0,191.58v-47.37H7.82l21.2-.07c8.57,0,15.22,2.01,19.94,6.03,4.73,4.02,7.09,9.92,7.09,17.69s-2.36,13.67-7.09,17.69c-4.73,4.02-11.37,6.03-19.94,6.03H0Zm28.29-38.82H10.6v30.21H28.29c5.56,0,9.78-1.21,12.65-3.64s4.31-6.25,4.31-11.46-1.44-9.09-4.31-11.49c-2.87-2.41-7.09-3.61-12.65-3.61Z"/><path d="M61.68,191.58v-34.12h26.1c3.84,0,6.67,.96,8.48,2.88,1.81,1.92,2.72,4.45,2.72,7.58v7.09h-9.74v-5.9c0-2.65-1.32-3.97-3.98-3.97h-13.85v26.43h-9.74Z"/><path d="M113.36,191.58c-3.58,0-6.32-.91-8.22-2.72-1.9-1.81-2.85-4.39-2.85-7.75s.95-5.87,2.85-7.69c1.9-1.81,4.64-2.72,8.22-2.72h25.44v-1.59c0-2.69-1.33-4.04-3.98-4.04h-28.09v-7.62h30.61c4.02,0,6.87,.92,8.55,2.75,1.68,1.83,2.52,4.41,2.52,7.72v23.65h-35.05Zm1.72-7.62h23.72v-5.63h-23.72c-.84,0-1.49,.26-1.96,.76-.46,.51-.7,1.18-.7,2.02s.23,1.52,.7,2.05c.47,.53,1.11,.8,1.96,.8Z"/><path d="M155.69,191.58v-47.37h9.61v47.37h-9.61Z"/><path d="M172.59,191.58v-34.12h44.19c3.89,0,6.74,.96,8.55,2.88,1.81,1.92,2.72,4.45,2.72,7.58v23.65h-9.61v-22.46c0-2.69-1.37-4.04-4.11-4.04h-9.21v26.5h-9.61v-26.5h-13.32v26.5h-9.61Z"/><path d="M252.49,191.91c-5.92,0-10.54-1.47-13.85-4.41-3.31-2.94-4.97-7.25-4.97-12.95s1.66-10.08,4.97-13.02c3.31-2.94,7.93-4.41,13.85-4.41h16.56c3.89,0,6.86,.92,8.91,2.75,2.05,1.83,3.08,4.45,3.08,7.85,0,6.94-4,10.4-11.99,10.4h-25.04c.93,4.11,3.75,6.16,8.48,6.16h26.83v7.62h-26.83Zm0-27.16c-4.55,0-7.35,1.92-8.41,5.76h24.51c.88,0,1.58-.26,2.09-.79,.51-.53,.76-1.26,.76-2.19,0-1.85-.95-2.78-2.85-2.78h-16.1Z"/><path d="M294.69,206.49v-7.62h20.01c2.65,0,3.98-1.35,3.98-4.04v-3.25h-20.47c-3.89,0-6.73-.97-8.51-2.92-1.79-1.94-2.68-4.46-2.68-7.55v-23.65h9.61v22.53c0,2.65,1.32,3.98,3.97,3.98h17.76v-26.5h9.94v38.56c0,3.13-.91,5.66-2.72,7.58-1.81,1.92-4.64,2.88-8.48,2.88h-22.39Z"/></g><g><path d="M.19,215.64v-2.68H11.6c.65,0,.98-.37,.98-1.1s-.33-1.07-.98-1.07H4.22c-1.38,0-2.43-.31-3.15-.94-.71-.63-1.07-1.53-1.07-2.71s.36-2.12,1.08-2.76c.72-.64,1.77-.97,3.13-.97H14.84v2.68H4.38c-.67,0-1,.33-1,.98,0,.33,.09,.58,.28,.77,.19,.19,.43,.28,.72,.28h7.83c1.21,0,2.14,.31,2.78,.94,.64,.63,.97,1.54,.97,2.74s-.33,2.15-.98,2.83c-.65,.68-1.58,1.01-2.77,1.01H.19Z"/><path d="M42.73,215.64c-2.08,0-3.7-.52-4.87-1.55-1.16-1.03-1.75-2.55-1.75-4.56s.58-3.55,1.75-4.58c1.16-1.03,2.79-1.55,4.87-1.55h4.31c2.08,0,3.7,.52,4.87,1.55,1.16,1.03,1.75,2.56,1.75,4.58s-.58,3.52-1.75,4.56c-1.16,1.03-2.79,1.55-4.87,1.55h-4.31Zm0-2.68h4.31c1.01,0,1.78-.28,2.32-.84s.8-1.42,.8-2.59-.27-2.05-.8-2.61-1.31-.84-2.32-.84h-4.31c-1.01,0-1.78,.28-2.32,.84s-.8,1.43-.8,2.61,.27,2.03,.8,2.59c.54,.56,1.31,.84,2.32,.84Z"/><path d="M74.4,215.53v-16.66h3.38v16.66h-3.38Z"/><path d="M102.8,215.53c-1.37,0-2.37-.34-2.99-1.03-.63-.68-.94-1.57-.94-2.65v-8.32h3.38v7.92c0,.93,.47,1.4,1.4,1.4h4.85c.93,0,1.4-.46,1.4-1.4v-7.92h3.38v8.32c0,1.09-.31,1.97-.94,2.65-.63,.69-1.63,1.03-2.99,1.03h-6.52Z"/><path d="M140.59,215.53c-1.35,0-2.35-.34-2.98-1.01s-.96-1.56-.96-2.67v-5.64h-3.47v-2.68h3.47v-3.68h3.38v3.68h4.99v2.68h-4.99v5.22c0,.95,.47,1.42,1.4,1.42h4.24v2.68h-5.08Z"/><path d="M166.04,201.55v-2.63h3.42v2.63h-3.42Zm.02,13.98v-12h3.38v12h-3.38Z"/><path d="M196.79,215.64c-2.08,0-3.7-.52-4.87-1.55-1.16-1.03-1.75-2.55-1.75-4.56s.58-3.55,1.75-4.58c1.16-1.03,2.79-1.55,4.87-1.55h4.31c2.08,0,3.7,.52,4.87,1.55,1.16,1.03,1.75,2.56,1.75,4.58s-.58,3.52-1.75,4.56c-1.16,1.03-2.79,1.55-4.87,1.55h-4.31Zm0-2.68h4.31c1.01,0,1.78-.28,2.32-.84s.8-1.42,.8-2.59-.27-2.05-.8-2.61-1.31-.84-2.32-.84h-4.31c-1.01,0-1.78,.28-2.32,.84s-.8,1.43-.8,2.61,.27,2.03,.8,2.59,1.31,.84,2.32,.84Z"/><path d="M228.46,215.53v-12h10.46c1.37,0,2.36,.34,2.99,1.01s.94,1.56,.94,2.67v8.32h-3.38v-7.92c0-.93-.47-1.4-1.4-1.4h-6.25v9.32h-3.38Z"/><path d="M263.55,215.64v-2.68h11.42c.65,0,.98-.37,.98-1.1s-.33-1.07-.98-1.07h-7.39c-1.38,0-2.43-.31-3.15-.94-.71-.63-1.07-1.53-1.07-2.71s.36-2.12,1.08-2.76c.72-.64,1.77-.97,3.13-.97h10.62v2.68h-10.46c-.67,0-1,.33-1,.98,0,.33,.09,.58,.28,.77,.19,.19,.43,.28,.72,.28h7.83c1.21,0,2.14,.31,2.78,.94,.64,.63,.97,1.54,.97,2.74s-.33,2.15-.98,2.83c-.65,.68-1.58,1.01-2.77,1.01h-12.02Z"/></g></g><g><path class="g" d="M173.62,96.64v-17.33l76.65,.13c3.91,0,6.91-.91,9-2.73,2.09-1.81,3.14-4.77,3.14-8.86s-1.05-7.04-3.14-8.86c-2.09-1.82-5.09-2.73-9-2.73h-47.72c-9.87,0-17.53-2.38-22.99-7.13-5.47-4.75-8.2-11.75-8.2-21s2.73-16.24,8.2-20.99c5.46-4.75,13.13-7.13,22.99-7.13h22.8V17.33l-20.53-.13c-3.82,0-6.8,.87-8.93,2.59-2.13,1.74-3.2,4.51-3.2,8.33s1.07,6.61,3.2,8.33c2.13,1.74,5.11,2.6,8.93,2.6h47.72c9.87,0,17.53,2.42,22.99,7.27,5.47,4.84,8.2,12.02,8.2,21.52s-2.73,16.58-8.2,21.47c-5.46,4.88-13.13,7.32-22.99,7.32h-78.92Z"/><path class="f" d="M151.15,12.28C141.52,4.1,127.98,0,110.52,0L51.41,.13V17.54h57.63c11.34,0,19.93,2.45,25.78,7.36,5.85,4.91,8.77,12.71,8.77,23.42s-2.93,18.4-8.77,23.35c-5.85,4.95-14.44,7.42-25.78,7.42h-4.99v17.55h6.48c17.46,0,31-4.09,40.63-12.28,9.63-8.19,14.44-20.2,14.44-36.04s-4.81-27.85-14.44-36.04Z"/><rect class="m" x="260" width="17.33" height="17.33"/><rect class="m" x="294.65" width="17.33" height="17.33"/><rect class="i" x="242.67" width="17.33" height="17.33"/><rect class="l" x="225.35" width="17.33" height="17.33"/><rect class="j" x="86.5" y="79.09" width="17.55" height="17.55"/><rect class="h" x="68.95" y="79.09" width="17.55" height="17.55"/><rect class="k" x="51.41" y="79.09" width="17.55" height="17.55"/><rect class="k" x="16.31" y="79.09" width="17.55" height="17.55"/></g></g></g></g></svg>