<svg xmlns="http://www.w3.org/2000/svg" viewBox="0 0 465.42 380.83"><defs><style>.cls-1{fill:#dbe6ff;}.cls-2{fill:#bf4949;}.cls-3{fill:#9f3d3c;}.cls-4{fill:#9ad85c;}.cls-5{fill:#87bd51;}.cls-6{fill:#8ec755;}.cls-7{fill:#8aa2e9;}.cls-8{fill:#f8f8f8;}.cls-9{fill:#e2e2e2;}.cls-10{fill:#c9c9c9;}.cls-11{fill:#b0b0b0;}.cls-12{fill:#59669a;}.cls-13{fill:#e4e4e4;}.cls-14{fill:#7c5845;}.cls-15,.cls-21{fill:#fff;}.cls-15,.cls-23{isolation:isolate;opacity:0.2;}.cls-16{fill:#efefef;}.cls-17{fill:#394263;}.cls-18{fill:#2e3550;}.cls-19{fill:#cf4f4f;}.cls-20{fill:#8a3534;}.cls-22{fill:#d4d6d9;}.cls-23{fill:#3d3d3d;}</style></defs><g id="Capa_2" data-name="Capa 2"><g id="Capa_1-2" data-name="Capa 1"><g id="Grupo_18588" data-name="Grupo 18588"><g id="Grupo_18539" data-name="Grupo 18539"><g id="Grupo_18531" data-name="Grupo 18531"><g id="Grupo_18528" data-name="Grupo 18528"><ellipse id="Elipse_1681" data-name="Elipse 1681" class="cls-1" cx="57.35" cy="194.52" rx="38.79" ry="22.4"/></g><g id="Grupo_18529" data-name="Grupo 18529"><ellipse id="Elipse_1682" data-name="Elipse 1682" class="cls-1" cx="90.32" cy="203.12" rx="22.73" ry="13.13"/></g><g id="Grupo_18530" data-name="Grupo 18530"><ellipse id="Elipse_1683" data-name="Elipse 1683" class="cls-1" cx="33.24" cy="203.12" rx="19.63" ry="11.33"/></g></g><g id="Grupo_18538" data-name="Grupo 18538"><g id="Grupo_18532" data-name="Grupo 18532"><path id="Trazado_19134" data-name="Trazado 19134" class="cls-2" d="M60,123.39v72a2.05,2.05,0,0,1-1.2,1.7,5,5,0,0,1-1.34.51,6.49,6.49,0,0,1-4.44-.51,2.06,2.06,0,0,1-1.19-1.7v-72a2.06,2.06,0,0,0,1.19,1.7,6.49,6.49,0,0,0,4.44.51,5,5,0,0,0,1.34-.51A2.05,2.05,0,0,0,60,123.39Z"/><path id="Trazado_19135" data-name="Trazado 19135" class="cls-3" d="M60.06,123.39v72a2.05,2.05,0,0,1-1.2,1.7,5,5,0,0,1-1.35.51v-72a5.39,5.39,0,0,0,1.35-.52A2,2,0,0,0,60.06,123.39Z"/></g><g id="Grupo_18533" data-name="Grupo 18533"><circle id="Elipse_1684" data-name="Elipse 1684" class="cls-4" cx="55.96" cy="94.46" r="44.05"/><path id="Trazado_19136" data-name="Trazado 19136" class="cls-5" d="M100,94.46A44.05,44.05,0,0,1,18.11,117,44.06,44.06,0,0,0,82.44,59.26,44,44,0,0,1,100,94.46Z"/></g><g id="Grupo_18534" data-name="Grupo 18534"><path id="Trazado_19137" data-name="Trazado 19137" class="cls-2" d="M53.8,176.24a1.58,1.58,0,0,1-1.09-.45L28.6,151.68a1.54,1.54,0,0,1,2.13-2.22l.05,0,24.1,24.11a1.53,1.53,0,0,1,0,2.18A1.56,1.56,0,0,1,53.8,176.24Z"/></g><g id="Grupo_18535" data-name="Grupo 18535"><path id="Trazado_19138" data-name="Trazado 19138" class="cls-2" d="M59.45,162.55a1.54,1.54,0,0,1-1.09-2.63L82.08,136.2a1.53,1.53,0,0,1,2.17,2.17L60.53,162.1A1.56,1.56,0,0,1,59.45,162.55Z"/></g><g id="Grupo_18536" data-name="Grupo 18536"><circle id="Elipse_1685" data-name="Elipse 1685" class="cls-4" cx="92.88" cy="131.18" r="25.81"/><path id="Trazado_19139" data-name="Trazado 19139" class="cls-5" d="M118.7,131.18a25.82,25.82,0,0,1-48,13.21,25.81,25.81,0,0,0,37.69-33.83A25.77,25.77,0,0,1,118.7,131.18Z"/></g><g id="Grupo_18537" data-name="Grupo 18537"><circle id="Elipse_1686" data-name="Elipse 1686" class="cls-4" cx="22.29" cy="149.34" r="22.29"/><path id="Trazado_19140" data-name="Trazado 19140" class="cls-5" d="M44.55,149.34A22.29,22.29,0,0,1,3.11,160.75a22.3,22.3,0,0,0,32.55-29.23A22.26,22.26,0,0,1,44.55,149.34Z"/></g></g></g><g id="Grupo_18587" data-name="Grupo 18587"><g id="Grupo_18540" data-name="Grupo 18540"><path id="Trazado_19141" data-name="Trazado 19141" class="cls-4" d="M406.2,264l23.19-13.39L371,216.88l-23.19,13.39Z"/><path id="Trazado_19142" data-name="Trazado 19142" class="cls-5" d="M406.2,268.07l23.19-13.39v-4.1L406.2,264Z"/></g><g id="Grupo_18541" data-name="Grupo 18541"><path id="Trazado_19143" data-name="Trazado 19143" class="cls-4" d="M27.17,270.67,4,257.28l76.46-44.14,23.19,13.39Z"/><path id="Trazado_19144" data-name="Trazado 19144" class="cls-6" d="M27.17,274.77,4,261.38v-4.1l23.19,13.39Z"/></g><path id="Trazado_19145" data-name="Trazado 19145" class="cls-7" d="M229.25,220.83v11.53L68.72,139.68v-11.5L149,96.5Z"/><path id="Trazado_19146" data-name="Trazado 19146" class="cls-8" d="M229.25,232.36v107L68.72,246.69v-107L149,108Z"/><g id="Grupo_18542" data-name="Grupo 18542"><path id="Trazado_19147" data-name="Trazado 19147" class="cls-4" d="M187.71,363.35l-30.83-17.81,41.56-24,30.84,17.8Z"/><path id="Trazado_19148" data-name="Trazado 19148" class="cls-6" d="M187.71,367.44l-30.83-17.8v-4.1l30.83,17.8Z"/></g><g id="Grupo_18543" data-name="Grupo 18543"><path id="Trazado_19149" data-name="Trazado 19149" class="cls-4" d="M118,323.08,27.17,270.64l41.57-24,90.77,52.43Z"/><path id="Trazado_19150" data-name="Trazado 19150" class="cls-6" d="M118,327.17,27.17,274.74v-4.1L118,323.08Z"/></g><g id="Grupo_18544" data-name="Grupo 18544"><path id="Trazado_19151" data-name="Trazado 19151" class="cls-9" d="M178.25,329.09l-38.9-22.46L159.51,295l38.9,22.47Z"/><path id="Trazado_19152" data-name="Trazado 19152" class="cls-10" d="M178.25,333.19l-38.9-22.46v-4.1l38.9,22.46Z"/><path id="Trazado_19153" data-name="Trazado 19153" class="cls-11" d="M178.25,333.19l20.16-11.64v-4.1l-20.16,11.64Z"/></g><g id="Grupo_18545" data-name="Grupo 18545"><path id="Trazado_19154" data-name="Trazado 19154" class="cls-9" d="M156.85,345.55,118,323.09l21.42-12.36,38.91,22.46Z"/><path id="Trazado_19155" data-name="Trazado 19155" class="cls-10" d="M156.85,349.64,118,327.18v-4.09l38.9,22.46Z"/></g><g id="Grupo_18546" data-name="Grupo 18546"><path id="Trazado_19156" data-name="Trazado 19156" class="cls-4" d="M210.88,376.72l-23.19-13.39L383,250.57,406.17,264Z"/><path id="Trazado_19157" data-name="Trazado 19157" class="cls-5" d="M210.88,380.83,406.2,268.06V264L210.88,376.73Z"/><path id="Trazado_19158" data-name="Trazado 19158" class="cls-6" d="M210.88,380.83l-23.19-13.39v-4.09l23.19,13.39Z"/></g><path id="Trazado_19159" data-name="Trazado 19159" class="cls-12" d="M383,132.07V143.6L229.25,232.37V220.84Z"/><path id="Trazado_19160" data-name="Trazado 19160" class="cls-13" d="M383,143.6v107L229.25,339.35v-107Z"/><g id="Grupo_18550" data-name="Grupo 18550"><path id="Trazado_19161" data-name="Trazado 19161" class="cls-14" d="M347.29,240.9,265,288.43V237.19l82.32-47.53Z"/><path id="Trazado_19162" data-name="Trazado 19162" class="cls-7" d="M344.51,194.5v44.82l-76.76,44.33V238.83Z"/><path id="Trazado_19163" data-name="Trazado 19163" class="cls-15" d="M317.19,255.09l-17.51,10.12-31.93-21.79v-4.59l13.86-8Z"/><path id="Trazado_19164" data-name="Trazado 19164" class="cls-15" d="M333,246l-4.58,2.64-35.58-24.28,4.58-2.64Z"/><g id="Grupo_18549" data-name="Grupo 18549"><g id="Grupo_18547" data-name="Grupo 18547"><path id="Trazado_19165" data-name="Trazado 19165" class="cls-14" d="M293.5,268.78,291.32,270V225.22L293.5,224Z"/></g><g id="Grupo_18548" data-name="Grupo 18548"><path id="Trazado_19166" data-name="Trazado 19166" class="cls-14" d="M320.94,253l-2.18,1.26V209.4l2.18-1.26Z"/></g></g></g><g id="Grupo_18552" data-name="Grupo 18552"><g id="Grupo_18551" data-name="Grupo 18551"><path id="Trazado_19167" data-name="Trazado 19167" class="cls-16" d="M244.37,236.53l-5,3.94L149,100.39,58.58,136.07l-5-9.66L149,88.77Z"/></g><path id="Trazado_19168" data-name="Trazado 19168" class="cls-17" d="M149,88.76,302.74,0l95.38,147.76L244.37,236.53Z"/><path id="Trazado_19169" data-name="Trazado 19169" class="cls-18" d="M53.62,126.4,207.37,37.64,302.74,0,149,88.76Z"/></g><g id="Grupo_18553" data-name="Grupo 18553"><path id="Trazado_19170" data-name="Trazado 19170" class="cls-2" d="M174.49,42.51V69l-17.11,6.77V32.64Z"/><path id="Trazado_19171" data-name="Trazado 19171" class="cls-3" d="M174.5,69l22.36-12.91V29.57l-22.36,13Z"/><path id="Trazado_19172" data-name="Trazado 19172" class="cls-19" d="M151.62,24.34,179.75,8.07l22.87,13.21L174.5,37.55Z"/><path id="Trazado_19173" data-name="Trazado 19173" class="cls-3" d="M160.26,24.33l19.5-11.27L194,21.27,174.5,32.55Z"/><path id="Trazado_19174" data-name="Trazado 19174" class="cls-3" d="M174.48,42.51v6.93l-17.11-9.88V32.63Z"/><path id="Trazado_19175" data-name="Trazado 19175" class="cls-20" d="M196.87,29.57v6.94L174.5,49.45V42.52Z"/><path id="Trazado_19176" data-name="Trazado 19176" class="cls-2" d="M151.62,24.34v8.3L174.5,45.85v-8.3Z"/><path id="Trazado_19177" data-name="Trazado 19177" class="cls-3" d="M202.63,21.28v8.29L174.5,45.85v-8.3Z"/><path id="Trazado_19178" data-name="Trazado 19178" class="cls-2" d="M179.76,13.06V29.51L194,21.27Z"/></g><g id="Grupo_18563" data-name="Grupo 18563"><g id="Grupo_18554" data-name="Grupo 18554"><path id="Trazado_19179" data-name="Trazado 19179" class="cls-16" d="M198.39,317.46,159.49,295V213.48l38.9,22.46Z"/></g><g id="Grupo_18558" data-name="Grupo 18558"><path id="Trazado_19180" data-name="Trazado 19180" class="cls-21" d="M191.94,273.65,166,258.71V226.54l25.9,14.94Z"/><path id="Trazado_19181" data-name="Trazado 19181" class="cls-7" d="M190.4,242.35V271l-22.87-13.2V229.14Z"/><path id="Trazado_19182" data-name="Trazado 19182" class="cls-15" d="M190.4,263.24V271l-1.75-1-21.12-38.8v-2.08l6.29,3.63Z"/><path id="Trazado_19183" data-name="Trazado 19183" class="cls-15" d="M190.4,254.19v2.62l-11.48-21.08,2.07,1.2Z"/><g id="Grupo_18557" data-name="Grupo 18557"><g id="Grupo_18555" data-name="Grupo 18555"><path id="Trazado_19184" data-name="Trazado 19184" class="cls-21" d="M179.21,264.57l-1-.56V235.32l1,.56Z"/></g><g id="Grupo_18556" data-name="Grupo 18556"><path id="Trazado_19185" data-name="Trazado 19185" class="cls-21" d="M166.79,243.64v-1.13l24.13,13.93v1.13Z"/></g></g></g><path id="Trazado_19186" data-name="Trazado 19186" class="cls-10" d="M191.6,277.2c0,.76-.56,1.07-1.2.69a2.68,2.68,0,0,1-1.21-2.09.74.74,0,0,1,1.21-.69A2.64,2.64,0,0,1,191.6,277.2Z"/><g id="Grupo_18559" data-name="Grupo 18559"><path id="Trazado_19187" data-name="Trazado 19187" class="cls-22" d="M168.24,269.14l7.54,4.36v24.24l-7.54-4.35Zm-1.73-3v28.23l11,6.35V272.5Z"/><path id="Trazado_19188" data-name="Trazado 19188" class="cls-22" d="M182.15,277.17l7.53,4.36v24.24l-7.53-4.35Zm-1.73-3v28.23l11,6.35V280.53Z"/></g><g id="Grupo_18560" data-name="Grupo 18560"><path id="Trazado_19189" data-name="Trazado 19189" class="cls-16" d="M195.55,319.11l-2.87-1.65V235.94l2.87,1.65Z"/><path id="Trazado_19190" data-name="Trazado 19190" class="cls-10" d="M198.42,317.46l-2.87,1.65V237.6l2.87-1.65Z"/></g><g id="Grupo_18561" data-name="Grupo 18561"><path id="Trazado_19191" data-name="Trazado 19191" class="cls-16" d="M159.51,298.29l-2.87-1.65V215.13l2.87,1.65Z"/><path id="Trazado_19192" data-name="Trazado 19192" class="cls-10" d="M162.37,296.64l-2.86,1.65V216.78l2.86-1.65Z"/></g><g id="Grupo_18562" data-name="Grupo 18562"><path id="Trazado_19193" data-name="Trazado 19193" class="cls-9" d="M156.64,215.14l2.87-1.66L198.41,236l-2.86,1.65Z"/><path id="Trazado_19194" data-name="Trazado 19194" class="cls-16" d="M156.64,218.44v-3.3l38.91,22.46v3.31Z"/></g></g><g id="Grupo_18572" data-name="Grupo 18572"><g id="Grupo_18564" data-name="Grupo 18564"><path id="Trazado_19195" data-name="Trazado 19195" class="cls-7" d="M130,199.18v45.67l-36.42-21V178.16Z"/><path id="Trazado_19196" data-name="Trazado 19196" class="cls-15" d="M130,232.44v12.41l-2.82-1.61L93.51,181.46v-3.32l10,5.79Z"/><path id="Trazado_19197" data-name="Trazado 19197" class="cls-15" d="M130,218.06v4.17l-18.28-33.57,3.31,1.91Z"/></g><g id="Grupo_18571" data-name="Grupo 18571"><g id="Grupo_18566" data-name="Grupo 18566"><g id="Grupo_18565" data-name="Grupo 18565"><path id="Trazado_19198" data-name="Trazado 19198" class="cls-16" d="M112.15,234.58l-1.58-.91V188l1.58.91Z"/></g></g><g id="Grupo_18567" data-name="Grupo 18567"><path id="Trazado_19199" data-name="Trazado 19199" class="cls-16" d="M91.12,228.53l-2.86-1.65V175.64l2.86,1.65Z"/><path id="Trazado_19200" data-name="Trazado 19200" class="cls-10" d="M94,226.88l-2.86,1.65V177.29L94,175.64Z"/></g><g id="Grupo_18568" data-name="Grupo 18568"><path id="Trazado_19201" data-name="Trazado 19201" class="cls-9" d="M91.12,225.22,94,223.57l35.52,20.5-2.87,1.65Z"/><path id="Trazado_19202" data-name="Trazado 19202" class="cls-16" d="M91.12,228.53v-3.31l35.52,20.5V249Z"/></g><g id="Grupo_18569" data-name="Grupo 18569"><path id="Trazado_19203" data-name="Trazado 19203" class="cls-16" d="M129.47,250.68,126.61,249V197.79l2.86,1.65Z"/><path id="Trazado_19204" data-name="Trazado 19204" class="cls-10" d="M132.35,249l-2.86,1.65V199.44l2.86-1.65Z"/></g><g id="Grupo_18570" data-name="Grupo 18570"><path id="Trazado_19205" data-name="Trazado 19205" class="cls-9" d="M88.26,175.64,91.12,174l41.23,23.8-2.86,1.65Z"/><path id="Trazado_19206" data-name="Trazado 19206" class="cls-16" d="M88.26,179v-3.31l41.23,23.8v3.31Z"/></g></g></g><g id="Grupo_18583" data-name="Grupo 18583"><g id="Grupo_18576" data-name="Grupo 18576"><g id="Grupo_18575" data-name="Grupo 18575"><g id="Grupo_18573" data-name="Grupo 18573"><path id="Trazado_19207" data-name="Trazado 19207" class="cls-16" d="M293.5,268.78,291.32,270V225.22L293.5,224Z"/></g><g id="Grupo_18574" data-name="Grupo 18574"><path id="Trazado_19208" data-name="Trazado 19208" class="cls-16" d="M320.94,253l-2.18,1.26V209.4l2.18-1.26Z"/></g></g></g><g id="Grupo_18582" data-name="Grupo 18582"><g id="Grupo_18581" data-name="Grupo 18581"><g id="Grupo_18577" data-name="Grupo 18577"><path id="Trazado_19209" data-name="Trazado 19209" class="cls-16" d="M347.29,244.23l2.87-1.65V191.34L347.29,193Z"/><path id="Trazado_19210" data-name="Trazado 19210" class="cls-10" d="M344.43,242.59l2.86,1.66V193l-2.86-1.66Z"/></g><g id="Grupo_18578" data-name="Grupo 18578"><path id="Trazado_19211" data-name="Trazado 19211" class="cls-9" d="M347.29,240.92l-2.86-1.65-76.6,44.22,2.87,1.66Z"/><path id="Trazado_19212" data-name="Trazado 19212" class="cls-16" d="M347.29,244.23v-3.31L270.7,285.15v3.31Z"/></g><g id="Grupo_18579" data-name="Grupo 18579"><path id="Trazado_19213" data-name="Trazado 19213" class="cls-16" d="M267.83,290.11l2.87-1.65V237.22l-2.87,1.65Z"/><path id="Trazado_19214" data-name="Trazado 19214" class="cls-10" d="M265,288.46l2.86,1.65V238.87L265,237.22Z"/></g><g id="Grupo_18580" data-name="Grupo 18580"><path id="Trazado_19215" data-name="Trazado 19215" class="cls-9" d="M350.16,191.34l-2.87-1.65L265,237.22l2.87,1.65Z"/><path id="Trazado_19216" data-name="Trazado 19216" class="cls-16" d="M350.16,194.67v-3.31l-82.32,47.53v3.31Z"/></g></g></g></g><g id="Grupo_18586" data-name="Grupo 18586"><g id="Grupo_18584" data-name="Grupo 18584"><ellipse id="Elipse_1687" data-name="Elipse 1687" class="cls-7" cx="148.99" cy="158.17" rx="9.94" ry="17.22" transform="translate(-59.13 95.69) rotate(-30)"/><path id="Trazado_19217" data-name="Trazado 19217" class="cls-15" d="M139.63,143.77l17.93,29.31a7.86,7.86,0,0,0,3.54-6.51L146.71,143A7.07,7.07,0,0,0,139.63,143.77Z"/><path id="Trazado_19218" data-name="Trazado 19218" class="cls-15" d="M136.93,149.27l14.77,24.17a8.57,8.57,0,0,0,3.59.4l-17.23-28.19A9.81,9.81,0,0,0,136.93,149.27Z"/><path id="Trazado_19219" data-name="Trazado 19219" class="cls-16" d="M150,174,148,172.86V142.32l1.92,1.13Z"/><path id="Trazado_19220" data-name="Trazado 19220" class="cls-16" d="M135.74,151.64v-2.2l26.44,15.27v2.21Z"/></g><g id="Grupo_18585" data-name="Grupo 18585"><path id="Trazado_19221" data-name="Trazado 19221" class="cls-10" d="M149,141.76c-7.85-4.51-14.21-.85-14.21,8.21A31.42,31.42,0,0,0,149,174.57c7.85,4.51,14.21.86,14.21-8.2A31.4,31.4,0,0,0,149,141.76Zm0,30.45a26.93,26.93,0,0,1-12.18-21.09c0-7.77,5.46-10.91,12.18-7a26.89,26.89,0,0,1,12.18,21.09c0,7.78-5.46,10.93-12.18,7Z"/><path id="Trazado_19222" data-name="Trazado 19222" class="cls-16" d="M147.49,142.63c-7.84-4.51-14.21-.85-14.21,8.21a31.42,31.42,0,0,0,14.21,24.6c7.85,4.51,14.21.86,14.21-8.2A31.4,31.4,0,0,0,147.49,142.63Zm0,30.45A26.93,26.93,0,0,1,135.31,152c0-7.77,5.46-10.91,12.18-7a26.93,26.93,0,0,1,12.18,21.1c0,7.78-5.46,10.92-12.18,7Z"/></g></g><path id="Trazado_19223" data-name="Trazado 19223" class="cls-23" d="M229.25,339.35l81.4,3.19,13.14-6.73,7.93,4.58,133.7-76.46L383,216.35v34.23Z"/></g></g></g></g></svg>