<svg xmlns="http://www.w3.org/2000/svg" viewBox="0 0 348.7 454.38"><defs><style>.cls-1{fill:#1976d2;}.cls-2{fill:#0d47a1;}.cls-3{fill:#90caf9;}.cls-4{fill:#42a5f5;}.cls-5{fill:#e8eaf6;}.cls-6{fill:#e1f5fe;}.cls-7{fill:#26477b;}.cls-8{fill:#e3f2fd;}.cls-9{fill:#ffb8a8;}.cls-10{fill:#fff;}.cls-11{fill:#e99d8c;}</style></defs><g id="Capa_2" data-name="Capa 2"><g id="Capa_1-2" data-name="Capa 1"><g id="Grupo_13911" data-name="Grupo 13911"><path id="Trazado_12996" data-name="Trazado 12996" class="cls-1" d="M205.51,359.59,142,322.88l-11.62-18.71,5.57-21,2.4-8.68,49.52-1.71,50.07,32.27,2.16,12-2.59,4.82-14.71,27.43A27.31,27.31,0,0,1,205.51,359.59Z"/><path id="Trazado_12997" data-name="Trazado 12997" class="cls-2" d="M221.12,296.64s13.56,13.29,17,16.14-.2,9.11-7.57,7.1c-9.82-2.71-17.68-9.45-27.11-12.79-3.88-1.37-2-7.41-.79-9.83a40.76,40.76,0,0,1,3.23-5.34Z"/><path id="Trazado_12998" data-name="Trazado 12998" class="cls-2" d="M229.68,368.88c3.37-3.33,28.63-32.86,34.3-39.83a23.29,23.29,0,0,0-1.44-17l-35.8-85.41,26.43-15.26,46.37,79.31a23.29,23.29,0,0,1,1.44,17c-5.67,7-30.92,36.51-34.29,39.84-3.23,3.15-24.53,34.21-49.83,32.22C223.52,378.92,227.16,371.37,229.68,368.88Z"/><path id="Trazado_12999" data-name="Trazado 12999" class="cls-3" d="M264,329.05a23.23,23.23,0,0,0-1.44-17l-35.79-85.41,29.59-17.09,43.2,81.14a23.31,23.31,0,0,1,1.44,17C296.26,308.28,268.89,320.64,264,329.05Z"/><g id="Grupo_13894" data-name="Grupo 13894"><path id="Trazado_13000" data-name="Trazado 13000" class="cls-2" d="M90.09,315.77c21.3,12.26,38.58,2.29,38.58-22.28a85.38,85.38,0,0,0-38.58-66.83c-21.3-12.26-38.58-2.29-38.58,22.28A85.37,85.37,0,0,0,90.09,315.77Zm0-70.8a50.29,50.29,0,0,1,22.72,39.37c0,14.47-10.19,20.36-22.72,13.13a50.28,50.28,0,0,1-22.73-39.38C67.37,243.62,77.56,237.73,90.09,245Z"/><path id="Trazado_13001" data-name="Trazado 13001" class="cls-1" d="M128.67,293.48a85.44,85.44,0,0,0-38.58-66.83,34.07,34.07,0,0,0-18.17-5.22c6.5-10.26,19.32-12.42,34-3.93a85.39,85.39,0,0,1,38.59,66.83,28.09,28.09,0,0,1-9.89,24c-3.19,2.26-12.67,7.51-16.79,9.76A27.42,27.42,0,0,0,128.67,293.48Z"/><path id="Trazado_13002" data-name="Trazado 13002" class="cls-2" d="M84.06,242.46a24.21,24.21,0,0,0-.85,6.45,50.33,50.33,0,0,0,22.73,39.38,24.56,24.56,0,0,0,6,2.53c-2.66,9.55-11.45,12.64-21.89,6.62a50.33,50.33,0,0,1-22.73-39.38C67.36,246,74.45,240,84.06,242.46Z"/><path id="Trazado_13003" data-name="Trazado 13003" class="cls-2" d="M82.83,259.39a30.63,30.63,0,0,0,13.87,24c7.66,4.42,13.87.84,13.87-8a30.68,30.68,0,0,0-13.87-24C89,247,82.83,250.53,82.83,259.39Z"/><path id="Trazado_13004" data-name="Trazado 13004" class="cls-4" d="M91.11,272.37,89.82,269l-1.29-3.36a21.71,21.71,0,0,1-15.42-4.84,51,51,0,0,0,7.28,18.72A11.73,11.73,0,0,1,91.11,272.37Zm18.76,23.13a54,54,0,0,0-10.25-18.21l1.3-1.86,1.29-1.86a40.22,40.22,0,0,0,10.55,10.14v.64a19.68,19.68,0,0,1-2.88,11.15ZM98,262.58l-2.58-1.5-2.58-1.51a36.58,36.58,0,0,0-2.47-14.49,40,40,0,0,1,9.19,7.66A21.23,21.23,0,0,0,98,262.61Z"/><path id="Trazado_13005" data-name="Trazado 13005" class="cls-3" d="M81.5,260.15a30.67,30.67,0,0,0,13.88,24c7.66,4.43,13.87.84,13.87-8a30.68,30.68,0,0,0-13.87-24C87.72,247.72,81.5,251.31,81.5,260.15Z"/><path id="Trazado_13006" data-name="Trazado 13006" class="cls-5" d="M115.43,285.84c0,16.14-11.37,22.7-25.34,14.63a56.09,56.09,0,0,1-25.34-43.89c0-16.14,11.37-22.7,25.34-14.63A56.09,56.09,0,0,1,115.43,285.84ZM90.09,245c-12.53-7.24-22.73-1.35-22.73,13.12a50.33,50.33,0,0,0,22.73,39.38c12.54,7.23,22.73,1.34,22.73-13.13A50.33,50.33,0,0,0,90.09,245Z"/></g><path id="Trazado_13007" data-name="Trazado 13007" class="cls-1" d="M217.08,191.34c-13.2,24.95-9.22,60.76-11.88,100.52a9.56,9.56,0,0,0,15.26,4.78c3.19-19.63,14.39-47.32,22.68-87.48,1.7-8.27,2.75-10,3.58-16.64C241.46,186.71,220.57,186.71,217.08,191.34Z"/><g id="Grupo_13895" data-name="Grupo 13895"><path id="Trazado_13008" data-name="Trazado 13008" class="cls-1" d="M99.05,266.14l31.37,18.11v17.69a205.06,205.06,0,0,1-31.37-9.12c-6.38-3.68-14.09-24-14.09-24s3.74-2.09,5.69-3.35A8,8,0,0,1,99.05,266.14Z"/></g><g id="Grupo_13896" data-name="Grupo 13896"><path id="Trazado_13009" data-name="Trazado 13009" class="cls-6" d="M92.83,270l31.37,18.11,3.47,18.27a319.15,319.15,0,0,1-34.86-9.68,25.54,25.54,0,0,1-11.55-20C81.27,269.26,86.44,266.26,92.83,270Z"/></g><g id="Grupo_13897" data-name="Grupo 13897"><path id="Trazado_13010" data-name="Trazado 13010" class="cls-1" d="M95,276.87l19.79,11.43,10.66,13.64c-14.2-3.68-28.92-7.35-30.45-8.23a16.14,16.14,0,0,1-7.29-12.63C87.63,276.43,90.92,274.55,95,276.87Z"/></g><path id="Trazado_13011" data-name="Trazado 13011" class="cls-3" d="M88.36,277.87a9,9,0,0,0-.15,1.64,16.14,16.14,0,0,0,7.29,12.63c1.45.84,14.76,4.18,28.24,7.66l1.65,2.13c-14.2-3.69-28.92-7.36-30.45-8.24a16.17,16.17,0,0,1-7.29-12.63A6.8,6.8,0,0,1,88.36,277.87Z"/><path id="Trazado_13012" data-name="Trazado 13012" class="cls-1" d="M150.27,183.14c30.62,20.93,66.64,26.14,81.45,33.23,2.87,4.95,21.3-20,16.69-24.53C230.5,174.17,167,148,167,148l-13.86,9.3Z"/><path id="Trazado_13013" data-name="Trazado 13013" class="cls-4" d="M52,191.24a259.47,259.47,0,0,1,34.64-22l57.06,57.86,5.07,77.07,11.61,18.72,63.56,36.71a27.36,27.36,0,0,0,17.23-10.24l14.71-27.43,2.58-4.81-2.15-12h0l-10.76-77.17,15-1.25,35.79,85.41a23.31,23.31,0,0,1,1.44,17c-5.67,7-30.92,36.5-34.29,39.83s-8.77,15.79-20.74,8.88-91.39-53.71-91.39-53.71c-12.34-8.33-50.87-82.7-105.11-112.51C46.19,211.52,47.54,195.62,52,191.24Z"/><g id="Grupo_13898" data-name="Grupo 13898"><path id="Trazado_13014" data-name="Trazado 13014" class="cls-2" d="M46.22,211.54s-11,14.17-12.94,16.88.21,5.48,4.52,3.68c4.52-1.9,21.75-12.16,21.75-12.16Z"/></g><g id="Grupo_13899" data-name="Grupo 13899"><path id="Trazado_13015" data-name="Trazado 13015" class="cls-1" d="M82.54,182.59l2,1.15a3.21,3.21,0,0,1-3.94,0Z"/><path id="Trazado_13016" data-name="Trazado 13016" class="cls-3" d="M73.7,42.51l-67,38.33L78.59,123,144,86.19Z"/><path id="Trazado_13017" data-name="Trazado 13017" class="cls-3" d="M73.69,42.51a1.37,1.37,0,0,0-1.39-.14L5.34,80.7l1.39.14Z"/><path id="Trazado_13018" data-name="Trazado 13018" class="cls-4" d="M3.89,138.85l76.68,44.9c1.08.64,2,.12,2-1.15V137.14l-2-10.68a4.37,4.37,0,0,0-2-3.43L6.73,80.84c-1.09-.65-2-.12-2,1.15L1.91,90.06v45.37A4.34,4.34,0,0,0,3.89,138.85Z"/><path id="Trazado_13019" data-name="Trazado 13019" class="cls-1" d="M144,86.18a4.33,4.33,0,0,1,2,3.42l2.95,9.13v45.54a4.38,4.38,0,0,1-2,3.43l-62.44,36c-1.09.65-2,.12-2-1.15V137.14l-2-10.69a4.42,4.42,0,0,0-2-3.43Z"/><path id="Trazado_13020" data-name="Trazado 13020" class="cls-3" d="M82.37,137.12,148.92,98.7c2.16.41,2.38,3.87,1.44,4.58-.33.23-66.55,38.42-66.55,38.42C81.26,140.26,79.83,135.67,82.37,137.12Z"/><path id="Trazado_13021" data-name="Trazado 13021" class="cls-3" d="M1.91,90.06l80.47,47.08c2.55,1.48,2.55,5.92,0,4.46L1.91,94.52C-.64,93-.64,88.59,1.91,90.06Z"/></g><g id="Grupo_13900" data-name="Grupo 13900"><path id="Trazado_13022" data-name="Trazado 13022" class="cls-2" d="M194.7,233.49s-10,23.95-8.35,27.83l.41,1c2.71,6.45,6.57,16.41,12.52,28.06,13.9,27.24-30.29,41.87-66.39,0l-8.5-63.26Z"/></g><path id="Trazado_13023" data-name="Trazado 13023" class="cls-2" d="M294.13,449.13c21.3,12.27,38.58,2.3,38.58-22.27A85.37,85.37,0,0,0,294.13,360c-21.3-12.26-38.58-2.29-38.59,22.28A85.39,85.39,0,0,0,294.13,449.13Zm0-70.79a50.29,50.29,0,0,1,22.72,39.37c0,14.47-10.2,20.36-22.72,13.13a50.28,50.28,0,0,1-22.73-39.38c0-14.47,10.2-20.35,22.73-13.12Z"/><path id="Trazado_13024" data-name="Trazado 13024" class="cls-5" d="M319.47,419.22c0,16.13-11.37,22.69-25.34,14.62A56.09,56.09,0,0,1,268.79,390c0-16.14,11.37-22.7,25.34-14.63A56.09,56.09,0,0,1,319.47,419.22Zm-25.34-40.88C281.6,371.1,271.4,377,271.4,391.46a50.28,50.28,0,0,0,22.73,39.38c12.52,7.23,22.72,1.34,22.72-13.13a50.36,50.36,0,0,0-22.72-39.37Z"/><path id="Trazado_13025" data-name="Trazado 13025" class="cls-1" d="M332.73,426.86A85.39,85.39,0,0,0,294.15,360,34,34,0,0,0,276,354.8c6.51-10.25,19.31-12.42,34-3.92a85.39,85.39,0,0,1,38.59,66.83,28.13,28.13,0,0,1-9.89,24c-3.19,2.25-12.67,7.5-16.79,9.76A27.41,27.41,0,0,0,332.73,426.86Z"/><path id="Trazado_13026" data-name="Trazado 13026" class="cls-2" d="M286.84,392.76a30.62,30.62,0,0,0,13.88,24c7.66,4.43,13.87.84,13.87-8a30.67,30.67,0,0,0-13.87-24C293.07,380.33,286.84,383.91,286.84,392.76Z"/><path id="Trazado_13027" data-name="Trazado 13027" class="cls-2" d="M288.1,375.83a24.2,24.2,0,0,0-.84,6.45A50.28,50.28,0,0,0,310,421.66a24.74,24.74,0,0,0,6,2.54c-2.66,9.54-11.44,12.63-21.88,6.61a50.33,50.33,0,0,1-22.73-39.37C271.4,379.4,278.5,373.33,288.1,375.83Z"/><path id="Trazado_13028" data-name="Trazado 13028" class="cls-4" d="M295.15,405.75l-1.29-3.36L292.57,399a21.76,21.76,0,0,1-15.42-4.84,51.24,51.24,0,0,0,7.28,18.72A11.71,11.71,0,0,1,295.15,405.75Zm18.76,23.13a54.11,54.11,0,0,0-10.25-18.22l1.3-1.86,1.29-1.86a40.22,40.22,0,0,0,10.54,10.15v.64a19.61,19.61,0,0,1-2.87,11.15ZM302,396l-2.58-1.5L296.86,393a36.66,36.66,0,0,0-2.47-14.5,40.29,40.29,0,0,1,9.19,7.67A21.34,21.34,0,0,0,302,396Z"/><path id="Trazado_13029" data-name="Trazado 13029" class="cls-4" d="M274.51,366.14l10.05,16.13,4.38-5.51-8.88-14.27Z"/><path id="Trazado_13030" data-name="Trazado 13030" class="cls-3" d="M285.55,393.53a30.66,30.66,0,0,0,13.87,24c7.66,4.42,13.87.84,13.87-8a30.66,30.66,0,0,0-13.87-24C291.76,381.09,285.55,384.68,285.55,393.53Z"/><path id="Trazado_13031" data-name="Trazado 13031" class="cls-4" d="M295,397.48a12.62,12.62,0,0,0,5.69,9.87c3.14,1.81,5.69.34,5.69-3.29a12.58,12.58,0,0,0-5.69-9.86C297.59,392.38,295,393.85,295,397.48Z"/><path id="Trazado_13032" data-name="Trazado 13032" class="cls-5" d="M293.72,398.25a12.58,12.58,0,0,0,5.69,9.85c3.14,1.82,5.69.34,5.69-3.28a12.56,12.56,0,0,0-5.69-9.86C296.27,393.15,293.72,394.6,293.72,398.25Z"/><g id="Grupo_13904" data-name="Grupo 13904"><g id="Grupo_13901" data-name="Grupo 13901"><path id="Trazado_13033" data-name="Trazado 13033" class="cls-4" d="M203.73,230.61,197.18,229l-35.46-19.41-60.5-27.28-14-25.09s29-16.53,29.78-17.21c1-.92,3.18-.75,7.39,2.9,20.7,17.94,15.55,18.24,26.41,26.36,12.11,9,32.84,25.22,37.25,28.6a31,31,0,0,1,9,9.1c3.09,5.67,8.31,15.61,8.31,15.61C207.88,227.73,206.57,231.31,203.73,230.61Z"/></g><g id="Grupo_13902" data-name="Grupo 13902"><path id="Trazado_13034" data-name="Trazado 13034" class="cls-7" d="M187.18,240.93l-18.35-32.82s14.2-13.05,19.25-10.27a24.34,24.34,0,0,1,9,9.1c3.09,5.66,8.31,15.6,8.31,15.6,1.81,3.79,1.61,6.72.26,7.75C205.15,230.66,187.18,240.93,187.18,240.93Z"/></g><g id="Grupo_13903" data-name="Grupo 13903"><path id="Trazado_13035" data-name="Trazado 13035" class="cls-2" d="M185.23,241.24l-6.55-1.62-47.35-9.46c-14.49-2.19-27.56-28.47-49.62-52.06l4-17.74c0-2.1,1-6.32,8.35,0C114.71,178.35,123,188,132.46,193.12a339.15,339.15,0,0,0,37.11,15.39,24.51,24.51,0,0,1,9,9.1c3.09,5.66,8.31,15.6,8.31,15.6C189.38,238.42,188.06,242,185.23,241.24Z"/></g></g><path id="Trazado_13036" data-name="Trazado 13036" class="cls-4" d="M278.76,352.81l26.72,43.25,5-6.43L285,348.32Z"/><path id="Trazado_13037" data-name="Trazado 13037" class="cls-8" d="M279.18,354.51l26.72,43.25,5-6.42L285.4,350Z"/><g id="Grupo_13905" data-name="Grupo 13905"><path id="Trazado_13038" data-name="Trazado 13038" class="cls-3" d="M299.74,320c21.94,17.59,35.93,38.27,40.2,52.77.27,1,.27,1.58,0,1.86-.56.48-13.41,7.75-13.41,7.75s-23.67-21.48-28.7-24.18c-4.31-2.31,0-5.81-6-1.81-7.66,5.12-26.2,4.59-26.2,4.59l12.6-36.11C283,321.81,295.86,316.94,299.74,320Z"/><path id="Trazado_13039" data-name="Trazado 13039" class="cls-4" d="M278.22,324.9c25.32,18.31,43.89,39.84,48.5,55.52.77,2.61-.58,2.8-4.72-.1-4.58-3.23-21.53-12.7-26.55-15.39a25,25,0,0,0-20.93,1.86,165.68,165.68,0,0,0-15.18,11.75l-17.5-9.49a3.4,3.4,0,0,1-1.23-4.65,2.9,2.9,0,0,1,.19-.29A152.85,152.85,0,0,1,278.22,324.9Z"/></g><path id="Trazado_13040" data-name="Trazado 13040" class="cls-2" d="M184.64,324s13.42,13.42,16.79,16.29-.3,9.1-7.65,7c-9.8-2.82-17.59-9.64-27-13.08-3.84-1.4-1.89-7.43-.67-9.83a38,38,0,0,1,3.26-5.31Z"/><path id="Trazado_13041" data-name="Trazado 13041" class="cls-1" d="M179.6,220.92c-15.86,23.34-9.07,59.57-11.74,99.34A9.63,9.63,0,0,0,183.42,324c-.65-17.67,12.91-42,20.13-82.49,1.49-8.3,5.86-13.19,3.82-18.65C202.77,216.47,183.59,216.69,179.6,220.92Z"/><path id="Trazado_13042" data-name="Trazado 13042" class="cls-1" d="M118.57,150a45.6,45.6,0,0,0-7.69,22.49c-.12,27,51.39,47.81,67,60.41,2.21,5.29,35.86-4.32,32.83-10.08-11.51-21.95-50.84-60.68-50.84-60.68L147.46,143.9Z"/><path id="Trazado_13043" data-name="Trazado 13043" class="cls-3" d="M135.59,304.17c3.82-3.63,6.74-2.23,14.37,0a350.48,350.48,0,0,1-23.4-74.78Z"/><path id="Trazado_13044" data-name="Trazado 13044" class="cls-2" d="M284.23,381c0,1.62,1.14,2.28,2.55,1.47a5.64,5.64,0,0,0,2.54-4.41c0-1.62-1.14-2.28-2.54-1.46A5.56,5.56,0,0,0,284.23,381Z"/><g id="Grupo_13906" data-name="Grupo 13906"><path id="Trazado_13045" data-name="Trazado 13045" class="cls-1" d="M284.91,382.16l14.84,23.6,3.88-4.92-14.78-23.46C287.63,375.35,283.62,379.3,284.91,382.16Z"/><path id="Trazado_13046" data-name="Trazado 13046" class="cls-4" d="M299.46,404.63c0,1.45,1,2,2.27,1.29A5,5,0,0,0,304,402c0-1.45-1-2-2.27-1.3A5,5,0,0,0,299.46,404.63Z"/></g><path id="Trazado_13047" data-name="Trazado 13047" class="cls-2" d="M303,393.16c.14-2.47.65-6.13,3.55-6.17,2.27,0,5.81,1.89,5.28,7.28-.55,5.9-7.06,17-15.56,12.51-2.09-1.09-4.11-6.86-.36-6.68C302.89,400.47,302.68,397.89,303,393.16Z"/><path id="Trazado_13048" data-name="Trazado 13048" class="cls-3" d="M302.22,393.16c.14-2.47.65-6.13,3.55-6.17,2.27,0,5.81,1.89,5.28,7.28-.55,5.9-7.06,17-15.56,12.51-2.09-1.09-3.88-6.32-.13-6.13C302.38,401,302,397.89,302.22,393.16Z"/><path id="Trazado_13049" data-name="Trazado 13049" class="cls-2" d="M243.89,172.61c.8-.73,19.16-18.89,22.06-21.53H266a2.9,2.9,0,0,1,3.5,0,9.88,9.88,0,0,1,4.47,7.75,3.44,3.44,0,0,1-.89,2.54h0c-1.05,1.05-21.85,21.2-22.35,21.74a2.85,2.85,0,0,1-3.67.1,9.9,9.9,0,0,1-4.47-7.75A3.66,3.66,0,0,1,243.89,172.61Z"/><path id="Trazado_13050" data-name="Trazado 13050" class="cls-3" d="M207.46,124.46c-.25-19.65-1.45-58.26-7-61.28,0,0-22.81-7.79-25.49,3.36-4.44,18.41,18.79,73.1,18.79,73.1C200.25,141,204.88,130.74,207.46,124.46Z"/><path id="Trazado_13051" data-name="Trazado 13051" class="cls-9" d="M247.48,151.42c-3.69-1.2-11.06,7.94-9.16,8.67s9.84,5.51,9.84,5.51a27.72,27.72,0,0,1,8.81-1.41c1,.56,6.14,8.59,10.41,6.65,2.37-1.07,7.75-5,8-6.46A13.32,13.32,0,0,0,267,152.89c-.65-.16-8.6-.53-8.6-.53l-8,.9Z"/><path id="Trazado_13052" data-name="Trazado 13052" class="cls-3" d="M200.52,121.83A320.49,320.49,0,0,1,251,151.42a20.56,20.56,0,0,0-5.16,10.74c-.65-.4-39.76-10.45-55.71-22.52C190.11,139.64,190.09,124.68,200.52,121.83Z"/><path id="Trazado_13053" data-name="Trazado 13053" class="cls-2" d="M262.63,142.26l6.45-16.52L285.91,116c3.14-1.81,2,7.65-3.43,11.83S262.63,142.26,262.63,142.26Z"/><path id="Trazado_13054" data-name="Trazado 13054" class="cls-2" d="M270.57,125.73,249.49,170c-.65,2,3.23,0,4.63-2.68l18.44-42.76Z"/><path id="Trazado_13055" data-name="Trazado 13055" class="cls-2" d="M294,402.78a4.21,4.21,0,0,0,1.94,3.3c1,.61,1.9.12,1.9-1.1a4.21,4.21,0,0,0-1.9-3.3C294.82,401.07,294,401.56,294,402.78Z"/><path id="Trazado_13056" data-name="Trazado 13056" class="cls-5" d="M293.55,403a4.23,4.23,0,0,0,1.9,3.31c1.06.6,1.94.11,1.94-1.1a4.22,4.22,0,0,0-1.94-3.3C294.4,401.26,293.55,401.75,293.55,403Z"/><path id="Trazado_13057" data-name="Trazado 13057" class="cls-3" d="M222.64,184.72a88.83,88.83,0,0,0,37-21.36c1,1,11.49,15.32,15.49,20.76a7,7,0,0,1,1.36,2.9c.35,2,1.68,10,2.12,12.91a6.94,6.94,0,0,1-1.36,5.56L269.35,210,234,230.36l-32.47-43A54.65,54.65,0,0,0,222.64,184.72Z"/><path id="Trazado_13058" data-name="Trazado 13058" class="cls-1" d="M224.14,184.71a54.37,54.37,0,0,1-21.07,2.58l-1.37-1.81c28.41-18.9,36.23-21.21,37-21.36a110.76,110.76,0,0,1,22.44-.78A88.72,88.72,0,0,1,224.14,184.71Z"/><path id="Trazado_13059" data-name="Trazado 13059" class="cls-4" d="M235.18,231.28s4.6-2.58,7.89-4.46a6.93,6.93,0,0,0,1.36-5.56c-.44-2.93-1.77-10.9-2.12-12.91a6.94,6.94,0,0,0-1.36-2.89c-4-5.44-14.53-19.79-15.49-20.76a109.24,109.24,0,0,0-22.43.78c-1.81.35-7.17,42.6,13.27,44.39Z"/><path id="Trazado_13060" data-name="Trazado 13060" class="cls-3" d="M241.59,210.32c.54,3.17,1.44,8.63,1.79,10.94a6.9,6.9,0,0,1-1.37,5.56l-6.21,3.51h0s-1.16-6.28-1.79-9.47C233.33,217.44,241.59,210.32,241.59,210.32Z"/><path id="Trazado_13061" data-name="Trazado 13061" class="cls-8" d="M238.9,210.32l37-21.36c.54,3.17,1.45,8.63,1.79,10.94a6.93,6.93,0,0,1-1.36,5.56c-2,1.15-35.36,20.43-37,21.36,0,0-1.38-8-2-11.23A5.52,5.52,0,0,1,238.9,210.32Z"/><g id="Grupo_13907" data-name="Grupo 13907"><path id="Trazado_13062" data-name="Trazado 13062" class="cls-10" d="M268.35,210a7,7,0,0,0,1.29-5.44c-.35-2.38-1.29-7.85-1.78-10.92l.35-.2c.52,3,1.45,8.64,1.81,11.06a8.67,8.67,0,0,1-.87,5.13l-.77.44Z"/><path id="Trazado_13063" data-name="Trazado 13063" class="cls-10" d="M271.51,208.17a7,7,0,0,0,1.29-5.44c-.36-2.39-1.29-7.9-1.78-10.93l.36-.2c.51,3,1.44,8.65,1.8,11.08a8.61,8.61,0,0,1-.86,5.11l-.78.44Z"/><path id="Trazado_13064" data-name="Trazado 13064" class="cls-10" d="M265.2,211.8a7,7,0,0,0,1.3-5.44c-.36-2.38-1.3-7.87-1.78-10.91l.35-.2c.51,3,1.44,8.65,1.8,11.06a8.55,8.55,0,0,1-.88,5.16l-.75.43Z"/><path id="Trazado_13065" data-name="Trazado 13065" class="cls-10" d="M262.05,213.63a7,7,0,0,0,1.29-5.44c-.36-2.38-1.26-7.83-1.78-10.9l.35-.2c.53,3,1.45,8.64,1.8,11a8.53,8.53,0,0,1-.88,5.16l-.74.43Z"/><path id="Trazado_13066" data-name="Trazado 13066" class="cls-10" d="M239.47,210l.36-.2c.52,3,1.44,8.61,1.79,11a8.38,8.38,0,0,1-1,5.24l-.64.38-.07-.13a7,7,0,0,0,1.29-5.44C240.89,218.51,240,213.06,239.47,210Z"/><path id="Trazado_13067" data-name="Trazado 13067" class="cls-10" d="M274.7,206.41v-.06a6.92,6.92,0,0,0,1.3-5.44c-.36-2.39-1.26-7.86-1.78-10.93l.35-.2c.52,3,1.45,8.66,1.81,11.08a8.69,8.69,0,0,1-.86,5.11Z"/><path id="Trazado_13068" data-name="Trazado 13068" class="cls-10" d="M243.11,224.5a7,7,0,0,0,1.29-5.44c-.36-2.38-1.25-7.79-1.77-10.87l.35-.2c.52,3,1.44,8.6,1.8,11a8.47,8.47,0,0,1-.94,5.25l-.65.38Z"/><path id="Trazado_13069" data-name="Trazado 13069" class="cls-10" d="M249.43,220.88a7,7,0,0,0,1.29-5.44c-.35-2.38-1.25-7.8-1.77-10.89l.36-.2c.51,3.05,1.44,8.62,1.8,11a8.5,8.5,0,0,1-.93,5.21l-.68.39Z"/><path id="Trazado_13070" data-name="Trazado 13070" class="cls-10" d="M246.28,222.69a7,7,0,0,0,1.3-5.44c-.36-2.36-1.3-7.83-1.78-10.88l.36-.2c.52,3,1.44,8.62,1.8,11a8.51,8.51,0,0,1-.94,5.22l-.65.39Z"/><path id="Trazado_13071" data-name="Trazado 13071" class="cls-10" d="M252.58,219.06a7,7,0,0,0,1.29-5.44c-.35-2.36-1.26-7.84-1.77-10.89l.35-.2c.52,3,1.45,8.64,1.8,11a8.44,8.44,0,0,1-.92,5.17l-.69.4Z"/><path id="Trazado_13072" data-name="Trazado 13072" class="cls-10" d="M255.73,217.22a7,7,0,0,0,1.3-5.45c-.35-2.38-1.26-7.81-1.78-10.89l.36-.2c.51,3,1.44,8.62,1.8,11a8.62,8.62,0,0,1-.91,5.16l-.71.41Z"/><path id="Trazado_13073" data-name="Trazado 13073" class="cls-10" d="M258.89,215.43a7,7,0,0,0,1.29-5.44c-.36-2.38-1.29-7.86-1.77-10.9l.35-.2c.51,3,1.44,8.63,1.8,11.05a8.56,8.56,0,0,1-.9,5.16l-.72.42Z"/></g><g id="Grupo_13910" data-name="Grupo 13910"><g id="Grupo_13908" data-name="Grupo 13908"><path id="Trazado_13074" data-name="Trazado 13074" class="cls-2" d="M175.27,205.35a16.38,16.38,0,0,0,5.16,9.62c1,.59,38.45-10,39.15-10.33a2.68,2.68,0,0,0,1.29-2.58,8.68,8.68,0,0,0-3.93-6.8,6.22,6.22,0,0,0-3.58-.54C211.06,195.12,175.27,204.51,175.27,205.35Z"/></g><g id="Grupo_13909" data-name="Grupo 13909"><path id="Trazado_13075" data-name="Trazado 13075" class="cls-4" d="M174,207.92a8.66,8.66,0,0,0,3.93,6.8c2.17,1.26,3.92.24,3.92-2.26a8.65,8.65,0,0,0-3.92-6.8C175.8,204.41,174,205.42,174,207.92Z"/></g></g><path id="Trazado_13076" data-name="Trazado 13076" class="cls-4" d="M175.5,66.55a8.66,8.66,0,0,1,8.06-6.28c6.21,1.07,10.63,12.26,14,14.12.65,16.83-3,27.69-11.13,44.82C180.14,101.69,172.85,77.6,175.5,66.55Z"/><path id="Trazado_13077" data-name="Trazado 13077" class="cls-3" d="M178.69,152.89c-4.17-27.32,32.39-56.94,25.18-89.72A74.48,74.48,0,0,0,185,56.71c-9.56-1.56-14.71-3.72-21.45-1.94-11.69,3.11-27,9-33.91,19-9.9,14.31-5.11,28.6-7.69,62.67A69.67,69.67,0,0,1,118.37,150C121.66,163.94,147.82,180.29,178.69,152.89Z"/><path id="Trazado_13078" data-name="Trazado 13078" class="cls-9" d="M168.55,36,162,54.81C166.79,66.22,177.21,74,181.48,67.5c1.74-3.35,2.58-4.79,4.89-8.76Z"/><path id="Trazado_13079" data-name="Trazado 13079" class="cls-11" d="M183.46,63.18A41.07,41.07,0,0,1,171.1,50.47a13.17,13.17,0,0,1-.71-9.63L186,58.73Z"/><path id="Trazado_13080" data-name="Trazado 13080" class="cls-9" d="M190.43,8.41C171.91,5,161.83,25.73,165.9,33.23A18.37,18.37,0,0,0,167.67,37a12.9,12.9,0,0,0,1.48,10.07A49.83,49.83,0,0,0,184.3,60a9.51,9.51,0,0,0,6.21,0c1.3-.46,1.3-1.58,2.36-3.31.65-1,2.4-4.2,4.13-7.51.64-1.29,2.3-2.74,2.9-4a33.58,33.58,0,0,0,1.51-6c.2-.84,1.29-1.87,1.46-2.78s0-1.07.27-2.26C205,24.93,207.88,11.58,190.43,8.41Z"/><path id="Trazado_13081" data-name="Trazado 13081" class="cls-4" d="M133.5,156.28s-9.16-54.18-.54-71c5.22-10.22,24.31-10.83,25.35,2a193.69,193.69,0,0,1-1.94,55,181.85,181.85,0,0,1,13.84,17.82A42.8,42.8,0,0,1,143,167.55,60,60,0,0,1,133.5,156.28Z"/><path id="Trazado_13082" data-name="Trazado 13082" class="cls-2" d="M198.13,9c-7.22-5.88-21.53-12.57-24.95-4C160.92,4.39,160.27,26.88,167.7,37a10.1,10.1,0,0,1-.59-8c1-2.06,7.24-3.23,4.95,7.15,0,0,1.15,2.2,2.51-4.93.81-4.23,2.87-5.71,3.17-7.36.88-4.9-.49-11.38,3.23-8.7a45,45,0,0,0,18.2,5.9c4.7.65,4.93-3.81,5.16.9a16.79,16.79,0,0,1,.17,3.47A13.45,13.45,0,0,0,198.13,9Z"/><path id="Trazado_13083" data-name="Trazado 13083" class="cls-3" d="M152.65,142.24a246.83,246.83,0,0,0,7-58.87c-1.05-12.88-19.77-15.26-25-5.05-8.62,16.85,1.14,75.47,1.14,75.47C141.76,156.62,148.67,147.74,152.65,142.24Z"/><path id="Trazado_13084" data-name="Trazado 13084" class="cls-9" d="M181.49,185.09c-3-2.42-8.1,9.44-6.58,10.79s8.66,6.06,8.66,6.06,3.27.35,4.69.65c1.17.22,6.18,9.35,8.85,9.68a14,14,0,0,0,8.84-2.84,14.75,14.75,0,0,0-4.52-14,90.37,90.37,0,0,0-10.41.33Z"/><path id="Trazado_13085" data-name="Trazado 13085" class="cls-4" d="M205,28.31s.54-8.66.56-16.53C205.6,3,195.75.24,185.33,0c-8.28-.18-17,2-19.9,8.39a24.59,24.59,0,0,0-2.15,17.19A204.91,204.91,0,0,0,205,28.31Z"/><path id="Trazado_13086" data-name="Trazado 13086" class="cls-1" d="M204.07,28.31a28.89,28.89,0,0,1,7.8,4.85c1.75,1.94-2.1-.87-9.46-.09-6.86.73-11.89,3.88-14,2.89-3.77-1.83-14.33-8.77-14.33-8.77C187.76,27,203.15,28.15,204.07,28.31Z"/><path id="Trazado_13087" data-name="Trazado 13087" class="cls-3" d="M150.39,141a326.6,326.6,0,0,1,36.54,46.48c-1.45,3.69-5.51,8.75-8.84,9.35-.46-.6-33.36-26-43.82-43.05C134.28,153.79,139.64,139.85,150.39,141Z"/><path id="Trazado_13088" data-name="Trazado 13088" class="cls-2" d="M202.16,179.08,195.71,170l-16.83,9.71c-3.14,1.82-2,9.94,3.43,7.87S202.16,179.08,202.16,179.08Z"/><path id="Trazado_13089" data-name="Trazado 13089" class="cls-2" d="M194.27,170l21.08,19.94c.65,1.29-3.23,3.78-4.63,2.68l-18.43-21.47Z"/></g></g></g></svg>