<svg xmlns="http://www.w3.org/2000/svg" width="14.514" height="13.788" viewBox="0 0 14.514 13.788"><defs><style>.a{fill:#2372d0;}</style></defs><path class="a" d="M.77,18.1H3.231a.773.773,0,0,1,.77.775v2.847h.921a2.136,2.136,0,0,1-.058-.664h0a6.236,6.236,0,0,1,.582-2.716,2.91,2.91,0,0,1,.9-1.091,1.987,1.987,0,0,1-.527-1.4,1.8,1.8,0,1,1,3.607,0,.213.213,0,0,1-.213.214H9.07a1.512,1.512,0,0,1,.02.246A1.482,1.482,0,0,1,7.9,17.762a3.618,3.618,0,0,1,.106.929l.53.458,1.29.1,1.488-.494a.449.449,0,0,1,.425,0,.381.381,0,0,1,.132.319v1.112a.213.213,0,0,1-.213.214h-.253l.388,1.348a.213.213,0,1,1-.408.119L10.968,20.4h-.6a6.924,6.924,0,0,1-.337,5.4h.382L12,24.014l-.337-1.169a.213.213,0,1,1,.408-.119l.322,1.118a2.141,2.141,0,0,1,2.113,1.666.214.214,0,0,1-.16.256l-.3.07a1.631,1.631,0,0,1-1.622,1.793A1.629,1.629,0,0,1,10.9,26.563l-.238.055a.276.276,0,0,1-.205-.012.245.245,0,0,1-.12-.164,2.136,2.136,0,0,1-.034-.213H5.859a1.81,1.81,0,0,1-3.585,0h-.2a.29.29,0,0,1-.221-.081.275.275,0,0,1-.075-.208,2.433,2.433,0,0,1,.087-.579A3.349,3.349,0,0,1,2.1,23.209a.563.563,0,0,1-.254-.471V22.15H.77A.773.773,0,0,1,0,21.376v-2.5A.773.773,0,0,1,.77,18.1Zm11.02,8.915a1.187,1.187,0,0,0,.907.154h0a1.21,1.21,0,0,0,.931-1.237l-2.306.533a1.2,1.2,0,0,0,.468.55Zm-1.064-.851,3.307-.765a1.712,1.712,0,0,0-1.693-1.127l-1.62,1.82Q10.723,26.13,10.726,26.166ZM7.515,22.442a1.911,1.911,0,0,1,.062.644v.806h.778V22.787c0-1.251-.679-1.473-.984-1.51H5.287a.909.909,0,0,0,.193.614.984.984,0,0,0,.738.222h.763a.512.512,0,0,1,.534.329Zm.062,1.878v.51H9.093a.61.61,0,0,0-.147-.365.523.523,0,0,0-.378-.145ZM5.3,20.849H7.23a8.011,8.011,0,0,0,.2-.791l-.588-.383a.883.883,0,0,1-.458-.812.755.755,0,0,1,.468-.618.764.764,0,0,1,.714.079,2.534,2.534,0,0,0-.1-.542,1.492,1.492,0,0,1-.269-.053,1.756,1.756,0,0,1-.5-.2c-.409.246-1.31,1.043-1.405,3.318Zm3.69-5.214a1.376,1.376,0,0,0-2.741.214,1.452,1.452,0,0,0,.795,1.377V16.1a.424.424,0,0,1,.427-.466h1.52Zm-.321.674a1.069,1.069,0,0,0-.028-.246H7.5l-.03,0a.255.255,0,0,0,0,.035v1.25a1.047,1.047,0,0,0,.153.011h0a1.052,1.052,0,0,0,1.046-1.054Zm.276,3.3-.5-.041a.212.212,0,0,1-.122-.051l-.909-.786h0a.421.421,0,0,0-.273-.115.319.319,0,0,0-.12.023.324.324,0,0,0-.2.263.472.472,0,0,0,.266.412l1.013.661h.851v-.366Zm.9.073-.473-.038v.332h.55c.071,0,.089-.06.091-.109A.169.169,0,0,0,9.839,19.684Zm.5-.148a.62.62,0,0,1,.078.439s0,0,0,0h1.03v-.811l-1.109.369v0Zm-.428.868H8.027a.212.212,0,0,1-.116-.034l-.1-.063c-.046.206-.1.406-.156.595.434.129,1.122.544,1.122,1.885v1.128a.886.886,0,0,1,.473.255,1.045,1.045,0,0,1,.266.661h.429A6.313,6.313,0,0,0,9.915,20.4Zm-.35,5.4c.079-.182.154-.363.226-.544H7.583c-.286,0-.431-.131-.431-.389V23.3H5.473a.214.214,0,0,1,0-.427H7.15a.972.972,0,0,0-.033-.279c-.011-.029-.02-.053-.137-.053H6.217a1.368,1.368,0,0,1-1.046-.355l-.03-.034H2.269v.587a.137.137,0,0,0,.135.135H4.52a.214.214,0,0,1,0,.427H2.529a2.533,2.533,0,0,0-.31,1.32,2.3,2.3,0,0,1,3.514-.276A2.359,2.359,0,0,1,6.4,25.8Zm-5.5,1.559A1.4,1.4,0,0,0,5.427,26.23H2.706a1.4,1.4,0,0,0,1.361,1.131ZM2.464,25.8h3.51a1.911,1.911,0,0,0-1.881-1.72,1.888,1.888,0,0,0-1.809,1.359l0,.007a1.981,1.981,0,0,0-.07.354ZM.425,21.376a.347.347,0,0,0,.345.347H3.576v-1.1H.425Zm0-1.184H3.576v-.454H.425Zm0-.882H3.576v-.435a.347.347,0,0,0-.345-.347H.77a.347.347,0,0,0-.345.347Z" transform="translate(0 -14)"/></svg>