<svg xmlns="http://www.w3.org/2000/svg" xmlns:xlink="http://www.w3.org/1999/xlink" viewBox="0 0 74.672 74.121"><defs><style>.a{fill:#fff;}.b{fill:none;}.c{fill:#e5e5e5;}.d{clip-path:url(#a);}</style><clipPath id="a"><path d="M74.12,36.786A37.373,37.373,0,0,1,36.786,74.12,37.061,37.061,0,0,1,37.335,0,36.788,36.788,0,0,1,74.12,36.786Z"/></clipPath></defs><g transform="translate(0 -1)"><path class="a" d="M37.335,0C57.954,0,74.67,16.47,74.67,36.786S57.954,73.571,37.335,73.571,0,57.1,0,36.786,16.715,0,37.335,0Z" transform="translate(0 1.365)"/><g transform="translate(0.551 1)"><path class="b" d="M74.12,36.786A37.373,37.373,0,0,1,36.786,74.12,37.061,37.061,0,0,1,37.335,0,36.788,36.788,0,0,1,74.12,36.786Z"/><path class="c" d="M30.654,14.977A13.36,13.36,0,0,1,17.477,28.154,13.36,13.36,0,0,1,4.3,14.977,13.36,13.36,0,0,1,17.477,1.8C25.164,1.8,30.654,7.29,30.654,14.977Z" transform="translate(19.309 8.083)"/><g class="d"><path class="c" d="M52.612,31.258c0,13.177-11.53,24.158-25.256,24.158S2.1,44.435,2.1,31.258,13.63,7.1,27.356,7.1C41.631,7.1,52.612,18.081,52.612,31.258Z" transform="translate(9.43 31.882)"/></g></g></g></svg>