<svg xmlns="http://www.w3.org/2000/svg" xmlns:xlink="http://www.w3.org/1999/xlink" viewBox="0 0 226.49 120.62"><defs><style>.cls-1{fill:url(#Degradado_sin_nombre_4);}.cls-2{fill:url(#Degradado_sin_nombre_4-3);}</style><linearGradient id="Degradado_sin_nombre_4" x1="114.69" y1="120.88" x2="111.88" y2="3.19" gradientUnits="userSpaceOnUse"><stop offset="0" stop-color="#7f25f3"/><stop offset="1" stop-color="#5056ff"/></linearGradient><linearGradient id="Degradado_sin_nombre_4-3" x1="113.77" y1="120.9" x2="110.95" y2="3.21" xlink:href="#Degradado_sin_nombre_4"/></defs><g id="Capa_2" data-name="Capa 2"><g id="Capa_1-2" data-name="Capa 1"><path class="cls-1" d="M222.49,0H4A4,4,0,0,0,0,4V116.62a4,4,0,0,0,4,4H222.49a4,4,0,0,0,4-4V4A4,4,0,0,0,222.49,0ZM8,8H29.92A26.32,26.32,0,0,1,8,29.92ZM8,112.62V90.71a26.29,26.29,0,0,1,21.92,21.91Zm210.49,0H196.57a26.29,26.29,0,0,1,21.92-21.91Zm0-30a34.29,34.29,0,0,0-30,30H38a34.29,34.29,0,0,0-30-30V38A34.28,34.28,0,0,0,38,8H188.51a34.28,34.28,0,0,0,30,30Zm0-52.72A26.32,26.32,0,0,1,196.57,8h21.92Z"/><path class="cls-1" d="M113.25,15.11c-21,0-38,20.28-38,45.2s17,45.2,38,45.2,38-20.27,38-45.2S134.2,15.11,113.25,15.11Zm0,82.4c-16.55,0-30-16.68-30-37.2s13.45-37.2,30-37.2,30,16.69,30,37.2S129.79,97.51,113.25,97.51Z"/><path class="cls-2" d="M117.15,55l-3.09-1a7.3,7.3,0,0,1-2.61-1.51,2.75,2.75,0,0,1-1-2,2.57,2.57,0,0,1,1.25-2.06,5.38,5.38,0,0,1,3.24-.92A10.9,10.9,0,0,1,121.53,50l3.87-7.52a21.53,21.53,0,0,0-9.51-3V33.14h-4.8v6.32a11.83,11.83,0,0,0-4.71,1.39,11.48,11.48,0,0,0-3.31,2.76,11.31,11.31,0,0,0-2,3.74,14.6,14.6,0,0,0-.65,4.33,11.57,11.57,0,0,0,.57,3.79,8.51,8.51,0,0,0,1.78,3,11.32,11.32,0,0,0,3.08,2.3,27.88,27.88,0,0,0,4.55,1.83l3,.94q3.41,1.09,3.4,3.39a3.22,3.22,0,0,1-1.44,2.72A5.56,5.56,0,0,1,112,70.65q-4.65,0-9.56-4.34L98.18,74.2a13.09,13.09,0,0,0,2.54,1.8A22.8,22.8,0,0,0,104,77.51a26,26,0,0,0,3.61,1,16.58,16.58,0,0,0,3.45.39v6.22h4.8V78.69A28.6,28.6,0,0,0,121,76.6a12.08,12.08,0,0,0,3.42-2.66,9.37,9.37,0,0,0,1.88-3.45,15.74,15.74,0,0,0,.57-4.44,9.68,9.68,0,0,0-2.3-6.71C123.08,57.61,120.59,56.16,117.15,55Z"/></g></g></svg>