<svg xmlns="http://www.w3.org/2000/svg" width="17.148" height="19.67" viewBox="0 0 17.148 19.67"><defs><style>.a{fill:#e4002b;}</style></defs><g transform="translate(-40.614 -70.767)"><path class="a" d="M57.5,63.451a.39.39,0,0,0,0-.738L52.94,60.079c-.351-.2-.639-.037-.639.369v5.27c0,.406.288.572.639.369Z" transform="translate(-11.687 10.775)"/><path class="a" d="M57.5,84.022a.39.39,0,0,0,0-.738L52.94,80.65c-.351-.2-.639-.037-.639.369v5.27c0,.406.288.572.639.369Z" transform="translate(-11.687 -3.051)"/><path class="a" d="M57.5,104.593a.39.39,0,0,0,0-.738l-4.563-2.635c-.351-.2-.639-.037-.639.369v5.27c0,.406.288.572.639.369Z" transform="translate(-11.687 -16.878)"/><path class="a" d="M70.117,76c0,.406.287.572.639.369l4.563-2.635a.39.39,0,0,0,0-.738l-4.563-2.635c-.351-.2-.639-.037-.639.369Z" transform="translate(-23.661 3.862)"/><path class="a" d="M70.117,96.574c0,.406.287.572.639.369l4.563-2.635a.39.39,0,0,0,0-.738l-4.563-2.635c-.351-.2-.639-.037-.639.369Z" transform="translate(-23.661 -9.964)"/><path class="a" d="M87.932,86.289c0,.406.288.572.639.369l4.563-2.635a.39.39,0,0,0,0-.738L88.571,80.65c-.351-.2-.639-.037-.639.369Z" transform="translate(-35.635 -3.052)"/></g></svg>