<svg xmlns="http://www.w3.org/2000/svg" xmlns:xlink="http://www.w3.org/1999/xlink" viewBox="0 0 118.462 70.109"><defs><style>.a{fill:url(#a);}.b{fill:#52159c;}.c{fill:#fff;}.d{fill:#5718a9;}.e{fill:url(#b);}</style><linearGradient id="a" x1="0.5" x2="0.5" y2="1" gradientUnits="objectBoundingBox"><stop offset="0" stop-color="#7c2fff"/><stop offset="1" stop-color="#340255"/></linearGradient><linearGradient id="b" x1="0.575" x2="0.57" y2="1.04" gradientUnits="objectBoundingBox"><stop offset="0" stop-color="#4e5eff"/><stop offset="1" stop-color="#7d2dff"/></linearGradient></defs><path class="a" d="M57.857,70.109H23.267a23.271,23.271,0,0,1,0-46.543,22.848,22.848,0,0,1,2.313.116,10.566,10.566,0,0,1,10.375-8.575,10.448,10.448,0,0,1,7.1,2.8A26.4,26.4,0,0,1,68.377,0c13.995,0,25.444,10.414,26.4,23.586l.416-.019a23.267,23.267,0,1,1-.01,46.533H57.857Z"/><path class="b" d="M285,513.349s50.24-10.82,29.18-14.479.087-4.781,11.749-4.481,16.511-.329,7.51-1.684c-10.511-1.578-1.761-1.7,1.413-1.5,0,0-9.756.29-1.123.968,6.436.5,16.23,3.475-7.578,3.6-23.267.126-12.175-.339-1.442,2.574,4.591,1.248,6.867,3.511,7.622,6.069,1.1,3.7-1.759,7.917-5.551,8.971Z" transform="translate(-257.417 -443.598)"/><path class="c" d="M278,513.36s50.327-11.023,29.267-14.682.087-4.781,11.749-4.481,16.54-.484,7.51-1.684-2.12-1.539,2-1.3c0,0-9.436.039-1.713.755s16.23,3.474-7.578,3.6c-23.267.126-12.175-.339-1.442,2.574,11.924,3.242,7.907,13.491,1.742,15.2H278Z" transform="translate(-251.094 -443.609)"/><path class="d" d="M478.4,665.081s9.891-2.681,15.156-5.981l2.41.678a34.645,34.645,0,0,1-9.572,5.294H478.4Z" transform="translate(-432.099 -595.311)"/><path class="d" d="M659.9,585.252l2.158.629s5.768-3.446.319-6.581l-.948.31C661.42,579.61,665.668,581.7,659.9,585.252Z" transform="translate(-596.033 -523.234)"/><path class="d" d="M573.262,552.881l-.5.416a74.3,74.3,0,0,0-7.859-1.781l.416-.416C565.306,551.11,569.971,551.942,573.262,552.881Z" transform="translate(-510.227 -497.763)"/><path class="d" d="M517.1,532.632l-.61.31s-5.681-1.113,2.787-1.742v.135C519.282,531.345,511.82,531.9,517.1,532.632Z" transform="translate(-464.822 -479.789)"/><path class="d" d="M579.5,529.868l.155.068,9.4-.048-.406-.087Z" transform="translate(-523.414 -478.525)"/><path class="d" d="M713.8,528.987l.165.135s4.075.145,8.449-.135l-.252-.087C722.172,528.9,717.5,529.142,713.8,528.987Z" transform="translate(-644.717 -477.712)"/><path class="d" d="M814.9,513.081l.4.087s5.1-.658,1.752-1.568l-.068.107C816.991,511.706,820.378,512.345,814.9,513.081Z" transform="translate(-736.032 -462.086)"/><path class="d" d="M796.262,504.718v.107a22.368,22.368,0,0,0-3.262-.581V504.2A27.131,27.131,0,0,1,796.262,504.718Z" transform="translate(-716.251 -455.398)"/><path class="d" d="M752.707,498.465v.068s-2.255-.3-2.807-.484V498A27.988,27.988,0,0,0,752.707,498.465Z" transform="translate(-677.323 -449.802)"/><path class="d" d="M739.795,493.368h-.077s-1.471-.252.736-.368l.058.019C740.5,493.019,738.4,493.087,739.795,493.368Z" transform="translate(-667.691 -445.286)"/><path class="e" d="M759.1,491.958l.019.019,2.216-.077Z" transform="translate(-685.632 -444.293)"/><g transform="translate(40.745 29.025)"><path class="c" d="M424.716,302.881v4.249h7.433v2.981h-7.433v5.855H421V299.9h12.137v2.981h-8.42Z" transform="translate(-421 -299.9)"/><path class="c" d="M576.216,302.881v4.249h7.433v2.981h-7.433v5.855H572.5V299.9h12.137v2.981h-8.42Z" transform="translate(-557.837 -299.9)"/><path class="c" d="M738.614,315.956l-.019-9.64-4.723,7.936H732.2l-4.713-7.723v9.427H724V299.9h3.078l6,9.978L739,299.9h3.049l.048,16.056Z" transform="translate(-694.675 -299.9)"/></g><g transform="translate(74.29 54.063)"><path class="c" d="M768.529,559.152H767.6V558.6h2.526v.552H769.2V561.5h-.668Z" transform="translate(-767.6 -558.6)"/><path class="c" d="M799.516,558.9a.912.912,0,0,1,.435.368,1.083,1.083,0,0,1,.155.561,1,1,0,0,1-.155.561,1.084,1.084,0,0,1-.435.368,1.612,1.612,0,0,1-.668.126h-.581v.8H797.6v-2.9h1.258A1.452,1.452,0,0,1,799.516,558.9Zm-.252,1.3a.45.45,0,0,0,.155-.368.457.457,0,0,0-.155-.378.719.719,0,0,0-.465-.126h-.552v1.006h.552A.78.78,0,0,0,799.265,560.2Z" transform="translate(-794.696 -558.767)"/><path class="c" d="M830.645,561.061v.542H828.4v-2.9h2.2v.542h-1.529v.629h1.345v.523h-1.345v.668Z" transform="translate(-822.516 -558.69)"/></g></svg>